<?xml version="1.0" encoding="UTF-8"?>
<svg id="Ebene_1" data-name="Ebene 1" xmlns="http://www.w3.org/2000/svg" viewBox="0 0 209.65 209.65">
  <defs>
    <style>
      .cls-1 {
        fill: #cd1420;
      }
    </style>
  </defs>
  <path class="cls-1" d="M58.02,147.28v51.36c14.09,7.04,29.99,11.01,46.81,11.01,45.4,0,84.06-28.86,98.63-69.24H64.88c-3.78,0-6.86,3.09-6.86,6.86Z"/>
  <path class="cls-1" d="M104.83,0C46.93,0,0,46.93,0,104.83c0,35.2,17.35,66.34,43.96,85.35v-56.04s0-.06,0-.1v-.66c0-3.87,3.16-7.03,7.03-7.03h155.05c.47,0,.93.05,1.38.14,1.47-6.99,2.25-14.24,2.25-21.66C209.65,46.93,162.72,0,104.83,0ZM97.29,110.58c-9.76,0-17.68-7.91-17.68-17.68s7.91-17.68,17.68-17.68,17.68,7.91,17.68,17.68-7.91,17.68-17.68,17.68ZM172.93,111.06c-9.76,0-17.68-7.91-17.68-17.68s7.91-17.68,17.68-17.68,17.68,7.91,17.68,17.68-7.91,17.68-17.68,17.68Z"/>
</svg>