<?xml version="1.0" encoding="UTF-8" standalone="no"?>
<!DOCTYPE svg PUBLIC "-//W3C//DTD SVG 1.1//EN" "http://www.w3.org/Graphics/SVG/1.1/DTD/svg11.dtd">
<svg xmlns="http://www.w3.org/2000/svg" version="1.1" viewBox="0.00 0.00 3448.00 911.00">
<g stroke-width="2.00" fill="none" stroke-linecap="butt">
<path stroke="#e6838f" vector-effect="non-scaling-stroke" d="
  M 389.28 690.53
  A 6.57 6.57 0.0 0 0 382.71 683.96
  A 6.57 6.57 0.0 0 0 376.14 690.53
  A 6.57 6.57 0.0 0 0 382.71 697.10
  A 6.57 6.57 0.0 0 0 389.28 690.53"
/>
<path stroke="#e6838f" vector-effect="non-scaling-stroke" d="
  M 411.88 690.53
  A 6.56 6.56 0.0 0 0 405.32 683.97
  A 6.56 6.56 0.0 0 0 398.76 690.53
  A 6.56 6.56 0.0 0 0 405.32 697.09
  A 6.56 6.56 0.0 0 0 411.88 690.53"
/>
<path stroke="#e6838f" vector-effect="non-scaling-stroke" d="
  M 498.64 722.37
  C 503.94 707.60 489.29 700.82 477.25 700.20
  Q 475.17 700.09 438.47 700.13
  A 0.62 0.62 0.0 0 0 437.85 700.75
  L 437.88 752.73
  A 0.62 0.61 90.0 0 0 438.49 753.35
  L 454.25 753.34
  A 0.42 0.42 0.0 0 0 454.67 752.92
  L 454.66 734.55
  A 0.44 0.44 0.0 0 1 455.09 734.11
  Q 468.37 734.28 476.53 734.03
  C 484.83 733.76 495.67 730.61 498.64 722.37"
/>
<path stroke="#e6838f" vector-effect="non-scaling-stroke" d="
  M 567.43 722.96
  C 572.76 708.16 558.07 701.35 546.00 700.72
  Q 543.91 700.61 507.11 700.63
  A 0.62 0.62 0.0 0 0 506.49 701.25
  L 506.49 753.37
  A 0.62 0.61 90.0 0 0 507.10 753.99
  L 522.90 753.99
  A 0.42 0.42 0.0 0 0 523.32 753.57
  L 523.32 735.15
  A 0.44 0.44 0.0 0 1 523.76 734.71
  Q 537.07 734.89 545.25 734.64
  C 553.58 734.38 564.45 731.23 567.43 722.96"
/>
<path stroke="#e6838f" vector-effect="non-scaling-stroke" d="
  M 592.86 733.44
  A 0.34 0.34 0.0 0 1 593.20 733.10
  L 627.19 733.10
  A 0.34 0.34 0.0 0 0 627.53 732.76
  L 627.53 722.87
  A 0.34 0.34 0.0 0 0 627.19 722.53
  L 593.19 722.53
  A 0.34 0.34 0.0 0 1 592.85 722.19
  L 592.85 713.06
  A 0.34 0.34 0.0 0 1 593.19 712.72
  L 629.09 712.72
  A 0.34 0.34 0.0 0 0 629.43 712.38
  L 629.43 702.59
  A 0.34 0.34 0.0 0 0 629.09 702.25
  L 577.89 702.25
  A 0.34 0.34 0.0 0 0 577.55 702.59
  L 577.55 755.12
  A 0.34 0.34 0.0 0 0 577.89 755.46
  L 629.30 755.46
  A 0.34 0.34 0.0 0 0 629.64 755.12
  L 629.64 745.21
  A 0.34 0.34 0.0 0 0 629.30 744.87
  L 593.20 744.87
  A 0.34 0.34 0.0 0 1 592.86 744.53
  L 592.86 733.44"
/>
<path stroke="#9e3b47" vector-effect="non-scaling-stroke" d="
  M 642.98 756.04
  L 690.03 756.04"
/>
<path stroke="#e6838f" vector-effect="non-scaling-stroke" d="
  M 690.03 756.04
  Q 690.38 756.01 690.61 756.10
  A 0.42 0.42 0.0 0 0 691.18 755.72
  L 691.39 746.11
  A 0.59 0.59 0.0 0 0 690.80 745.50
  L 657.35 745.50
  A 0.61 0.60 0.0 0 1 656.74 744.90
  L 656.74 703.31
  A 0.56 0.55 90.0 0 0 656.19 702.75
  L 641.26 702.75
  A 0.56 0.56 0.0 0 0 640.70 703.31
  L 640.70 755.32
  A 0.79 0.77 -80.6 0 0 641.22 756.06
  Q 641.93 756.30 642.98 756.04"
/>
<path stroke="#b8b7b7" vector-effect="non-scaling-stroke" d="
  M 690.03 756.04
  L 642.98 756.04"
/>
<path stroke="#e6838f" vector-effect="non-scaling-stroke" d="
  M 454.57 710.86
  L 454.69 723.68
  A 0.43 0.43 0.0 0 0 455.12 724.11
  L 473.88 723.95
  A 9.07 6.19 -0.5 0 0 482.90 717.68
  L 482.88 716.38
  A 9.07 6.19 -0.5 0 0 473.76 710.27
  L 455.00 710.43
  A 0.43 0.43 0.0 0 0 454.57 710.86"
/>
<path stroke="#e6838f" vector-effect="non-scaling-stroke" d="
  M 523.52 710.90
  L 523.48 724.32
  A 0.27 0.27 0.0 0 0 523.75 724.59
  L 542.24 724.66
  A 9.42 6.51 0.2 0 0 551.68 718.18
  L 551.68 717.24
  A 9.42 6.51 0.2 0 0 542.28 710.70
  L 523.79 710.63
  A 0.27 0.27 0.0 0 0 523.52 710.90"
/>
</g>
<path fill="#cc071e" d="
  M 731.37 792.15
  A 0.26 0.26 0.0 0 1 731.11 792.41
  L 254.15 792.41
  A 0.73 0.73 0.0 0 1 253.42 791.68
  L 253.42 103.54
  A 0.69 0.69 0.0 0 1 254.11 102.85
  L 1253.84 102.85
  A 1.14 1.06 54.1 0 1 1254.25 102.93
  Q 1269.37 108.98 1280.47 120.75
  C 1287.44 128.15 1293.91 138.87 1293.95 148.93
  Q 1294.07 182.65 1294.01 464.25
  Q 1294.00 479.33 1293.90 481.06
  A 7.01 6.95 -37.6 0 1 1293.76 482.11
  Q 1292.40 488.38 1287.44 495.45
  Q 1279.21 507.18 1267.75 516.01
  C 1263.96 518.92 1258.88 522.26 1254.25 522.31
  Q 1242.53 522.45 732.00 522.37
  A 0.63 0.62 0.0 0 0 731.37 522.99
  L 731.37 792.15
  Z
  M 854.42 416.96
  C 856.91 444.98 876.54 468.07 905.49 470.15
  C 924.33 471.51 942.69 466.01 955.19 451.85
  C 965.93 439.67 970.28 422.75 968.86 406.80
  C 967.45 390.85 960.18 374.96 947.46 364.87
  C 932.67 353.12 913.62 350.96 895.32 355.61
  C 867.19 362.76 851.93 388.95 854.42 416.96
  Z
  M 1104.95 416.98
  C 1107.43 444.98 1127.06 468.06 1156.00 470.14
  C 1174.82 471.49 1193.18 466.00 1205.67 451.84
  C 1216.40 439.67 1220.75 422.76 1219.34 406.81
  C 1217.92 390.87 1210.65 374.99 1197.94 364.91
  C 1183.15 353.17 1164.11 351.00 1145.82 355.65
  C 1117.71 362.80 1102.46 388.98 1104.95 416.98
  Z
  M 389.28 690.53
  A 6.57 6.57 0.0 0 0 382.71 683.96
  A 6.57 6.57 0.0 0 0 376.14 690.53
  A 6.57 6.57 0.0 0 0 382.71 697.10
  A 6.57 6.57 0.0 0 0 389.28 690.53
  Z
  M 411.88 690.53
  A 6.56 6.56 0.0 0 0 405.32 683.97
  A 6.56 6.56 0.0 0 0 398.76 690.53
  A 6.56 6.56 0.0 0 0 405.32 697.09
  A 6.56 6.56 0.0 0 0 411.88 690.53
  Z
  M 355.24 722.02
  C 360.53 707.39 346.00 700.63 334.06 700.00
  Q 332.00 699.89 295.59 699.87
  A 0.61 0.61 0.0 0 0 294.97 700.48
  L 294.92 752.05
  A 0.61 0.60 -89.9 0 0 295.52 752.66
  L 311.15 752.68
  A 0.42 0.42 0.0 0 0 311.57 752.26
  L 311.59 734.04
  A 0.44 0.44 0.0 0 1 312.03 733.60
  Q 325.19 733.80 333.29 733.56
  C 341.53 733.31 352.29 730.20 355.24 722.02
  Z
  M 498.64 722.37
  C 503.94 707.60 489.29 700.82 477.25 700.20
  Q 475.17 700.09 438.47 700.13
  A 0.62 0.62 0.0 0 0 437.85 700.75
  L 437.88 752.73
  A 0.62 0.61 90.0 0 0 438.49 753.35
  L 454.25 753.34
  A 0.42 0.42 0.0 0 0 454.67 752.92
  L 454.66 734.55
  A 0.44 0.44 0.0 0 1 455.09 734.11
  Q 468.37 734.28 476.53 734.03
  C 484.83 733.76 495.67 730.61 498.64 722.37
  Z
  M 567.43 722.96
  C 572.76 708.16 558.07 701.35 546.00 700.72
  Q 543.91 700.61 507.11 700.63
  A 0.62 0.62 0.0 0 0 506.49 701.25
  L 506.49 753.37
  A 0.62 0.61 90.0 0 0 507.10 753.99
  L 522.90 753.99
  A 0.42 0.42 0.0 0 0 523.32 753.57
  L 523.32 735.15
  A 0.44 0.44 0.0 0 1 523.76 734.71
  Q 537.07 734.89 545.25 734.64
  C 553.58 734.38 564.45 731.23 567.43 722.96
  Z
  M 425.8745 714.1056
  A 12.41 12.41 0.0 0 0 413.4862 701.6740
  L 374.5662 701.6061
  A 12.41 12.41 0.0 0 0 362.1346 713.9944
  L 362.0855 742.0944
  A 12.41 12.41 0.0 0 0 374.4738 754.5260
  L 413.3938 754.5939
  A 12.41 12.41 0.0 0 0 425.8254 742.2056
  L 425.8745 714.1056
  Z
  M 592.86 733.44
  A 0.34 0.34 0.0 0 1 593.20 733.10
  L 627.19 733.10
  A 0.34 0.34 0.0 0 0 627.53 732.76
  L 627.53 722.87
  A 0.34 0.34 0.0 0 0 627.19 722.53
  L 593.19 722.53
  A 0.34 0.34 0.0 0 1 592.85 722.19
  L 592.85 713.06
  A 0.34 0.34 0.0 0 1 593.19 712.72
  L 629.09 712.72
  A 0.34 0.34 0.0 0 0 629.43 712.38
  L 629.43 702.59
  A 0.34 0.34 0.0 0 0 629.09 702.25
  L 577.89 702.25
  A 0.34 0.34 0.0 0 0 577.55 702.59
  L 577.55 755.12
  A 0.34 0.34 0.0 0 0 577.89 755.46
  L 629.30 755.46
  A 0.34 0.34 0.0 0 0 629.64 755.12
  L 629.64 745.21
  A 0.34 0.34 0.0 0 0 629.30 744.87
  L 593.20 744.87
  A 0.34 0.34 0.0 0 1 592.86 744.53
  L 592.86 733.44
  Z
  M 642.98 756.04
  L 690.03 756.04
  Q 690.38 756.01 690.61 756.10
  A 0.42 0.42 0.0 0 0 691.18 755.72
  L 691.39 746.11
  A 0.59 0.59 0.0 0 0 690.80 745.50
  L 657.35 745.50
  A 0.61 0.60 0.0 0 1 656.74 744.90
  L 656.74 703.31
  A 0.56 0.55 90.0 0 0 656.19 702.75
  L 641.26 702.75
  A 0.56 0.56 0.0 0 0 640.70 703.31
  L 640.70 755.32
  A 0.79 0.77 -80.6 0 0 641.22 756.06
  Q 641.93 756.30 642.98 756.04
  Z"
/>
<path fill="#cc071e" d="
  M 2107.41 468.84
  Q 2141.65 467.31 2161.75 466.97
  Q 2181.98 466.63 2204.74 467.91
  Q 2229.09 469.28 2246.42 485.83
  Q 2259.59 498.41 2264.83 515.96
  Q 2267.13 523.68 2267.72 536.87
  Q 2268.50 554.48 2268.09 579.82
  Q 2267.83 596.23 2265.93 612.68
  Q 2263.47 634.06 2248.64 648.67
  Q 2230.67 666.36 2205.65 668.61
  Q 2195.15 669.55 2180.00 669.78
  Q 2157.93 670.10 2128.25 668.86
  Q 2092.97 667.38 2063.09 668.29
  Q 2055.08 668.54 2050.97 667.76
  Q 2045.06 666.63 2039.34 664.15
  C 2017.16 654.54 1999.56 634.64 1998.00 609.99
  Q 1995.27 566.81 1997.90 525.25
  C 1999.58 498.66 2024.79 474.68 2049.99 469.13
  A 11.07 10.90 40.0 0 1 2053.01 468.89
  Q 2063.23 469.50 2078.50 469.39
  Q 2079.37 469.38 2092.97 469.20
  Q 2102.01 469.08 2107.41 468.84
  Z
  M 2124.44 532.90
  A 27.70 27.70 0.0 0 0 2096.74 505.20
  A 27.70 27.70 0.0 0 0 2069.04 532.90
  A 27.70 27.70 0.0 0 0 2096.74 560.60
  A 27.70 27.70 0.0 0 0 2124.44 532.90
  Z
  M 2167.90 560.94
  C 2203.85 560.51 2203.54 504.47 2167.24 504.90
  C 2130.94 505.33 2131.96 561.37 2167.90 560.94
  Z"
/>
<path fill="#cc071e" d="
  M 1754.14 556.39
  L 1914.94 556.41
  A 0.96 0.66 28.7 0 0 1915.13 556.39
  C 1923.05 554.05 1922.81 536.36 1915.81 533.08
  A 2.18 2.03 55.6 0 0 1914.92 532.88
  L 1754.10 532.88
  A 0.60 0.59 0.0 0 1 1753.50 532.29
  L 1753.50 468.97
  A 0.60 0.60 0.0 0 1 1754.10 468.37
  Q 1785.02 468.30 1943.99 468.35
  C 1956.00 468.35 1968.73 477.10 1977.36 485.13
  C 1985.37 492.59 1988.90 501.88 1990.78 512.49
  C 1994.72 534.72 1994.38 559.16 1988.59 581.33
  C 1984.89 595.53 1973.48 605.91 1960.72 612.74
  Q 1951.06 617.91 1941.26 617.92
  Q 1936.10 617.92 1825.75 617.92
  A 0.41 0.40 0.0 0 0 1825.34 618.32
  L 1825.34 668.40
  A 0.29 0.28 0.0 0 1 1825.05 668.68
  L 1754.10 668.68
  A 0.59 0.59 0.0 0 1 1753.51 668.09
  L 1753.51 557.03
  A 0.64 0.63 -90.0 0 1 1754.14 556.39
  Z"
/>
<path fill="#cc071e" d="
  M 2275.87 667.93
  L 2275.87 556.98
  A 0.60 0.59 -90.0 0 1 2276.46 556.38
  Q 2357.26 556.39 2437.35 556.42
  Q 2438.33 556.42 2440.16 554.76
  C 2444.82 550.51 2444.70 536.10 2438.13 533.11
  A 2.63 2.52 56.1 0 0 2437.07 532.88
  L 2276.52 532.88
  A 0.64 0.64 0.0 0 1 2275.88 532.24
  L 2275.88 468.77
  A 0.44 0.44 0.0 0 1 2276.32 468.33
  Q 2448.65 468.38 2458.06 468.31
  Q 2471.45 468.20 2475.34 469.49
  C 2489.03 474.04 2500.99 484.57 2508.49 497.26
  C 2512.62 504.23 2513.88 511.77 2514.61 520.10
  Q 2516.54 542.02 2514.26 565.00
  Q 2513.52 572.48 2511.97 578.97
  C 2507.78 596.45 2489.33 613.23 2471.77 617.14
  Q 2468.23 617.93 2460.19 617.93
  Q 2394.32 617.92 2348.35 617.90
  A 0.64 0.64 0.0 0 0 2347.71 618.54
  L 2347.71 668.04
  A 0.63 0.63 0.0 0 1 2347.08 668.67
  L 2276.61 668.67
  A 0.74 0.74 0.0 0 1 2275.87 667.93
  Z"
/>
<path fill="#cc071e" d="
  M 2521.42 668.70
  A 0.74 0.74 0.0 0 1 2520.68 667.96
  L 2520.66 557.00
  A 0.60 0.59 90.0 0 1 2521.25 556.40
  Q 2602.06 556.40 2682.16 556.42
  Q 2683.14 556.42 2684.97 554.76
  C 2689.64 550.51 2689.51 536.09 2682.94 533.10
  A 2.63 2.52 56.0 0 0 2681.88 532.87
  L 2521.31 532.89
  A 0.64 0.64 0.0 0 1 2520.67 532.25
  L 2520.66 468.78
  A 0.44 0.44 0.0 0 1 2521.10 468.34
  Q 2693.46 468.36 2702.87 468.29
  Q 2716.26 468.18 2720.15 469.47
  C 2733.84 474.02 2745.80 484.55 2753.31 497.24
  C 2757.44 504.21 2758.70 511.75 2759.43 520.08
  Q 2761.36 542.01 2759.09 564.99
  Q 2758.35 572.47 2756.80 578.96
  C 2752.61 596.44 2734.16 613.23 2716.60 617.14
  Q 2713.06 617.93 2705.02 617.93
  Q 2639.14 617.93 2593.16 617.92
  A 0.64 0.64 0.0 0 0 2592.52 618.56
  L 2592.53 668.06
  A 0.63 0.63 0.0 0 1 2591.90 668.69
  L 2521.42 668.70
  Z"
/>
<path fill="#cc071e" d="
  M 1618.05 590.12
  C 1627.19 592.23 1635.96 601.13 1640.68 608.80
  Q 1641.80 610.62 1641.81 613.25
  Q 1641.87 655.51 1641.81 668.37
  A 0.32 0.32 0.0 0 1 1641.49 668.68
  L 1572.10 668.68
  A 0.79 0.79 0.0 0 1 1571.31 667.89
  Q 1571.37 651.51 1571.31 629.00
  C 1571.30 625.37 1568.38 622.98 1565.23 620.05
  Q 1562.89 617.86 1559.52 617.87
  Q 1504.14 618.03 1465.03 617.87
  A 0.77 0.77 0.0 0 0 1464.25 618.64
  L 1464.25 668.09
  A 0.59 0.59 0.0 0 1 1463.66 668.68
  L 1394.36 668.68
  A 0.60 0.60 0.0 0 1 1393.76 668.08
  L 1393.76 556.72
  A 0.29 0.28 90.0 0 1 1394.04 556.43
  Q 1463.46 556.35 1563.93 556.43
  C 1566.10 556.43 1568.49 554.02 1569.34 551.84
  C 1571.50 546.32 1571.76 535.68 1564.97 533.05
  A 2.54 2.51 55.3 0 0 1564.06 532.88
  L 1396.65 532.88
  A 1.07 1.06 66.9 0 1 1395.91 532.58
  L 1394.15 530.90
  A 1.25 1.23 22.1 0 1 1393.76 530.00
  L 1393.76 469.14
  A 0.60 0.60 0.0 0 1 1394.36 468.54
  L 1602.91 468.54
  A 6.66 6.25 50.0 0 1 1604.42 468.72
  C 1621.23 472.86 1637.03 487.33 1641.47 504.25
  C 1648.85 532.33 1647.13 573.14 1617.95 589.47
  A 0.36 0.35 36.7 0 0 1618.05 590.12
  Z"
/>
<path fill="#cc071e" d="
  M 2982.01 530.72
  L 2979.74 532.77
  A 0.41 0.41 0.0 0 1 2979.46 532.88
  L 2833.13 532.88
  A 0.41 0.41 0.0 0 0 2832.72 533.29
  L 2832.72 605.24
  A 0.41 0.41 0.0 0 0 2833.13 605.65
  L 2979.67 605.65
  A 0.41 0.41 0.0 0 1 2979.97 605.78
  L 2982.03 608.05
  A 0.41 0.41 0.0 0 1 2982.14 608.33
  L 2982.14 668.27
  A 0.41 0.41 0.0 0 1 2981.73 668.68
  L 2762.82 668.68
  A 0.41 0.41 0.0 0 1 2762.41 668.27
  L 2762.41 468.95
  A 0.41 0.41 0.0 0 1 2762.82 468.54
  L 2981.73 468.54
  A 0.41 0.41 0.0 0 1 2982.14 468.95
  L 2982.14 530.42
  A 0.41 0.41 0.0 0 1 2982.01 530.72
  Z"
/>
<path fill="#cc071e" d="
  M 2998.52 468.54
  L 3069.50 468.54
  A 0.59 0.59 0.0 0 1 3070.09 469.13
  Q 3070.09 480.78 3070.09 589.53
  C 3070.09 593.43 3068.37 594.04 3064.69 594.03
  Q 3012.76 593.94 2998.79 594.02
  A 0.58 0.57 0.0 0 1 2998.21 593.45
  L 2998.21 468.85
  A 0.31 0.31 0.0 0 1 2998.52 468.54
  Z"
/>
<rect fill="#cc071e" x="2845.91" y="544.55" width="136.24" height="49.44" rx="3.80"/>
<path fill="#cc071e" d="
  M 1029.75 792.47
  Q 943.18 792.46 806.00 792.70
  C 788.11 792.73 774.29 778.61 770.17 761.90
  A 4.30 4.12 40.2 0 1 770.05 760.75
  Q 771.16 734.67 770.71 721.25
  Q 768.69 660.13 768.57 653.25
  Q 768.05 624.14 769.71 603.76
  C 771.06 587.20 781.88 574.18 797.64 569.39
  Q 800.41 568.55 805.14 568.57
  Q 806.90 568.58 1029.59 568.59
  Q 1116.16 568.59 1253.34 568.35
  C 1271.23 568.32 1285.05 582.44 1289.17 599.15
  A 4.30 4.12 40.2 0 1 1289.29 600.30
  Q 1288.18 626.38 1288.63 639.80
  Q 1290.65 700.92 1290.77 707.80
  Q 1291.29 736.91 1289.63 757.29
  C 1288.28 773.85 1277.46 786.87 1261.70 791.66
  Q 1258.93 792.50 1254.20 792.48
  Q 1252.44 792.48 1029.75 792.47
  Z"
/>
<rect fill="#cc071e" x="2998.19" y="605.65" width="307.64" height="63.04" rx="0.52"/>
<rect fill="#cc071e" x="1660.95" y="605.65" width="61.36" height="63.04" rx="0.51"/>
<circle fill="#ffffff" cx="382.71" cy="690.53" r="6.57"/>
<circle fill="#ffffff" cx="405.32" cy="690.53" r="6.56"/>
<path fill="#ffffff" d="
  M 498.64 722.37
  C 495.67 730.61 484.83 733.76 476.53 734.03
  Q 468.37 734.28 455.09 734.11
  A 0.44 0.44 0.0 0 0 454.66 734.55
  L 454.67 752.92
  A 0.42 0.42 0.0 0 1 454.25 753.34
  L 438.49 753.35
  A 0.62 0.61 90.0 0 1 437.88 752.73
  L 437.85 700.75
  A 0.62 0.62 0.0 0 1 438.47 700.13
  Q 475.17 700.09 477.25 700.20
  C 489.29 700.82 503.94 707.60 498.64 722.37
  Z
  M 454.57 710.86
  L 454.69 723.68
  A 0.43 0.43 0.0 0 0 455.12 724.11
  L 473.88 723.95
  A 9.07 6.19 -0.5 0 0 482.90 717.68
  L 482.88 716.38
  A 9.07 6.19 -0.5 0 0 473.76 710.27
  L 455.00 710.43
  A 0.43 0.43 0.0 0 0 454.57 710.86
  Z"
/>
<path fill="#ffffff" d="
  M 546.00 700.72
  C 558.07 701.35 572.76 708.16 567.43 722.96
  C 564.45 731.23 553.58 734.38 545.25 734.64
  Q 537.07 734.89 523.76 734.71
  A 0.44 0.44 0.0 0 0 523.32 735.15
  L 523.32 753.57
  A 0.42 0.42 0.0 0 1 522.90 753.99
  L 507.10 753.99
  A 0.62 0.61 90.0 0 1 506.49 753.37
  L 506.49 701.25
  A 0.62 0.62 0.0 0 1 507.11 700.63
  Q 543.91 700.61 546.00 700.72
  Z
  M 523.52 710.90
  L 523.48 724.32
  A 0.27 0.27 0.0 0 0 523.75 724.59
  L 542.24 724.66
  A 9.42 6.51 0.2 0 0 551.68 718.18
  L 551.68 717.24
  A 9.42 6.51 0.2 0 0 542.28 710.70
  L 523.79 710.63
  A 0.27 0.27 0.0 0 0 523.52 710.90
  Z"
/>
<path fill="#ffffff" d="
  M 592.86 733.44
  L 592.86 744.53
  A 0.34 0.34 0.0 0 0 593.20 744.87
  L 629.30 744.87
  A 0.34 0.34 0.0 0 1 629.64 745.21
  L 629.64 755.12
  A 0.34 0.34 0.0 0 1 629.30 755.46
  L 577.89 755.46
  A 0.34 0.34 0.0 0 1 577.55 755.12
  L 577.55 702.59
  A 0.34 0.34 0.0 0 1 577.89 702.25
  L 629.09 702.25
  A 0.34 0.34 0.0 0 1 629.43 702.59
  L 629.43 712.38
  A 0.34 0.34 0.0 0 1 629.09 712.72
  L 593.19 712.72
  A 0.34 0.34 0.0 0 0 592.85 713.06
  L 592.85 722.19
  A 0.34 0.34 0.0 0 0 593.19 722.53
  L 627.19 722.53
  A 0.34 0.34 0.0 0 1 627.53 722.87
  L 627.53 732.76
  A 0.34 0.34 0.0 0 1 627.19 733.10
  L 593.20 733.10
  A 0.34 0.34 0.0 0 0 592.86 733.44
  Z"
/>
<path fill="#ffffff" d="
  M 690.03 756.04
  L 642.98 756.04
  Q 641.93 756.30 641.22 756.06
  A 0.79 0.77 -80.6 0 1 640.70 755.32
  L 640.70 703.31
  A 0.56 0.56 0.0 0 1 641.26 702.75
  L 656.19 702.75
  A 0.56 0.55 -90.0 0 1 656.74 703.31
  L 656.74 744.90
  A 0.61 0.60 -0.0 0 0 657.35 745.50
  L 690.80 745.50
  A 0.59 0.59 0.0 0 1 691.39 746.11
  L 691.18 755.72
  A 0.42 0.42 0.0 0 1 690.61 756.10
  Q 690.38 756.01 690.03 756.04
  Z"
/>
<path fill="#cc071e" d="
  M 311.46 710.12
  A 0.67 0.67 0.0 0 1 312.14 709.45
  L 330.87 709.52
  A 9.22 6.50 0.2 0 1 340.06 716.05
  L 340.06 717.41
  A 9.22 6.50 0.2 0 1 330.81 723.88
  L 312.09 723.81
  A 0.67 0.67 0.0 0 1 311.42 723.14
  L 311.46 710.12
  Z"
/>
<path fill="#cc071e" d="
  M 454.57 710.86
  A 0.43 0.43 0.0 0 1 455.00 710.43
  L 473.76 710.27
  A 9.07 6.19 -0.5 0 1 482.88 716.38
  L 482.90 717.68
  A 9.07 6.19 -0.5 0 1 473.88 723.95
  L 455.12 724.11
  A 0.43 0.43 0.0 0 1 454.69 723.68
  L 454.57 710.86
  Z"
/>
<path fill="#cc071e" d="
  M 523.52 710.90
  A 0.27 0.27 0.0 0 1 523.79 710.63
  L 542.28 710.70
  A 9.42 6.51 0.2 0 1 551.68 717.24
  L 551.68 718.18
  A 9.42 6.51 0.2 0 1 542.24 724.66
  L 523.75 724.59
  A 0.27 0.27 0.0 0 1 523.48 724.32
  L 523.52 710.90
  Z"
/>
<rect fill="#cc071e" x="-19.35" y="-16.58" transform="translate(394.03,727.98) rotate(-0.1)" width="38.70" height="33.16" rx="5.73"/>
<path fill="#706f6f" d="
  M 1657.73 737.26
  A 0.36 0.36 0.0 0 1 1657.37 737.66
  L 1639.29 737.66
  A 0.99 0.99 0.0 0 1 1638.34 736.95
  C 1635.60 727.85 1622.79 727.74 1615.29 729.32
  C 1611.79 730.06 1608.51 732.52 1608.60 736.46
  C 1608.72 741.30 1614.59 743.07 1618.79 743.93
  C 1631.73 746.57 1641.29 747.87 1650.94 753.29
  C 1655.99 756.13 1659.43 760.52 1660.34 766.45
  C 1664.94 796.54 1625.08 798.40 1606.72 793.15
  Q 1589.71 788.28 1585.80 771.06
  A 0.54 0.54 0.0 0 1 1586.33 770.39
  L 1604.63 770.39
  A 0.71 0.70 80.9 0 1 1605.30 770.88
  C 1607.04 776.29 1611.50 779.55 1617.08 780.73
  C 1622.04 781.78 1637.47 782.89 1640.23 776.64
  C 1644.08 767.91 1635.37 765.05 1628.53 763.48
  C 1616.65 760.74 1593.28 759.11 1589.81 743.90
  Q 1587.04 731.70 1594.82 723.85
  C 1604.54 714.06 1622.80 713.45 1635.86 716.11
  C 1646.90 718.36 1656.36 725.61 1657.73 737.26
  Z"
/>
<path fill="#706f6f" d="
  M 1751.75 740.90
  L 1733.55 740.90
  A 0.86 0.85 78.6 0 1 1732.76 740.37
  Q 1729.89 733.37 1722.91 730.89
  C 1719.51 729.68 1714.40 729.04 1710.94 729.60
  Q 1695.05 732.15 1692.34 749.10
  C 1691.12 756.73 1692.49 766.84 1697.34 772.92
  Q 1704.86 782.35 1718.88 780.38
  Q 1728.67 779.00 1732.58 769.80
  A 1.32 1.31 11.5 0 1 1733.79 769.00
  L 1751.68 769.00
  A 0.43 0.42 8.2 0 1 1752.09 769.54
  Q 1746.39 789.19 1726.32 793.98
  Q 1715.95 796.45 1704.80 794.74
  C 1680.16 790.96 1668.00 769.24 1672.87 745.81
  C 1676.59 727.91 1691.34 716.11 1709.26 714.99
  C 1719.96 714.32 1730.23 715.46 1739.41 721.54
  Q 1749.50 728.23 1752.32 740.19
  A 0.58 0.58 0.0 0 1 1751.75 740.90
  Z"
/>
<path fill="#706f6f" d="
  M 3201.59 763.89
  L 3184.11 763.89
  A 0.86 0.86 0.0 0 1 3183.25 763.03
  L 3183.25 749.89
  A 0.57 0.57 0.0 0 1 3183.82 749.32
  L 3219.81 749.32
  A 0.61 0.61 0.0 0 1 3220.42 749.93
  L 3220.42 793.18
  A 0.61 0.61 0.0 0 1 3219.81 793.79
  L 3207.30 793.79
  A 0.81 0.81 0.0 0 1 3206.50 793.10
  L 3205.61 787.01
  A 0.46 0.46 0.0 0 0 3204.81 786.76
  Q 3198.31 793.81 3187.73 794.92
  C 3181.03 795.63 3173.97 795.69 3167.84 794.13
  C 3148.05 789.07 3138.75 772.12 3140.07 752.03
  C 3141.52 729.86 3157.14 716.34 3178.74 714.91
  C 3195.91 713.78 3216.59 719.76 3220.54 739.06
  A 0.43 0.42 83.9 0 1 3220.13 739.58
  L 3202.47 739.58
  A 1.19 1.19 0.0 0 1 3201.46 739.02
  Q 3201.21 738.63 3200.26 737.08
  C 3195.29 729.04 3183.78 727.87 3175.35 730.14
  C 3161.58 733.85 3158.49 749.30 3160.58 761.49
  C 3162.38 771.94 3168.65 779.37 3179.26 780.65
  C 3190.77 782.04 3202.04 778.06 3202.19 764.50
  A 0.60 0.60 0.0 0 0 3201.59 763.89
  Z"
/>
<path fill="#706f6f" d="
  M 3239.40 716.16
  L 3303.33 716.24
  A 0.63 0.62 90.0 0 1 3303.95 716.87
  L 3303.97 730.94
  A 0.58 0.57 -0.0 0 1 3303.39 731.51
  L 3258.55 731.52
  A 0.60 0.60 0.0 0 0 3257.95 732.13
  L 3257.95 745.64
  A 0.66 0.65 90.0 0 0 3258.60 746.30
  L 3301.04 746.25
  A 0.66 0.65 90.0 0 1 3301.69 746.91
  L 3301.67 760.83
  A 0.56 0.55 -89.5 0 1 3301.12 761.38
  L 3258.45 761.44
  A 0.49 0.49 0.0 0 0 3257.96 761.93
  L 3257.98 778.09
  A 0.56 0.56 0.0 0 0 3258.54 778.65
  L 3305.57 778.63
  A 0.80 0.79 4.3 0 1 3306.36 779.54
  L 3304.31 793.44
  A 0.64 0.63 4.1 0 1 3303.68 793.98
  L 3239.43 794.00
  A 0.46 0.46 0.0 0 1 3238.97 793.54
  L 3238.93 716.63
  A 0.47 0.46 -0.0 0 1 3239.40 716.16
  Z"
/>
<path fill="#706f6f" d="
  M 1407.94 730.28
  Q 1408.05 731.23 1408.14 732.53
  Q 1410.01 760.08 1409.17 793.23
  A 0.58 0.57 0.5 0 1 1408.59 793.79
  L 1392.57 793.79
  A 0.36 0.35 -0.0 0 1 1392.21 793.44
  L 1392.21 716.80
  A 0.43 0.43 0.0 0 1 1392.64 716.37
  L 1419.20 716.37
  A 0.70 0.69 -9.3 0 1 1419.86 716.84
  Q 1428.71 743.40 1433.79 759.77
  Q 1435.31 764.67 1436.88 771.06
  A 0.03 0.03 0.0 0 0 1436.93 771.06
  L 1454.82 716.62
  A 0.36 0.34 -80.7 0 1 1455.15 716.37
  L 1482.11 716.37
  A 0.54 0.53 -90.0 0 1 1482.64 716.91
  L 1482.64 793.27
  A 0.52 0.52 0.0 0 1 1482.12 793.79
  L 1465.04 793.79
  A 0.58 0.58 0.0 0 1 1464.46 793.21
  L 1464.46 730.13
  A 0.07 0.07 0.0 0 0 1464.32 730.11
  C 1463.66 732.49 1463.28 734.66 1462.49 737.23
  Q 1455.80 759.14 1444.68 792.99
  A 1.16 1.14 -80.9 0 1 1443.59 793.79
  L 1428.19 793.79
  A 0.77 0.77 0.0 0 1 1427.45 793.23
  L 1408.41 730.18
  A 0.24 0.24 0.0 0 0 1407.94 730.28
  Z"
/>
<path fill="#706f6f" d="
  M 1561.44 793.54
  L 1554.13 776.39
  A 0.39 0.39 0.0 0 0 1553.77 776.15
  L 1520.19 776.15
  A 0.39 0.39 0.0 0 0 1519.83 776.39
  L 1512.89 793.54
  A 0.39 0.39 0.0 0 1 1512.53 793.78
  L 1493.81 793.78
  A 0.39 0.39 0.0 0 1 1493.45 793.24
  L 1524.47 716.61
  A 0.39 0.39 0.0 0 1 1524.83 716.37
  L 1548.93 716.37
  A 0.39 0.39 0.0 0 1 1549.29 716.61
  L 1581.98 793.24
  A 0.39 0.39 0.0 0 1 1581.62 793.78
  L 1561.80 793.78
  A 0.39 0.39 0.0 0 1 1561.44 793.54
  Z
  M 1536.71 760.94
  Q 1543.04 760.85 1548.30 760.86
  A 0.39 0.39 0.0 0 0 1548.66 760.32
  Q 1541.69 743.93 1536.34 729.14
  Q 1536.32 729.08 1536.27 729.08
  Q 1536.22 729.08 1536.20 729.15
  Q 1531.26 744.07 1524.75 760.65
  A 0.39 0.39 0.0 0 0 1525.12 761.18
  Q 1530.38 761.03 1536.71 760.94
  Z"
/>
<path fill="#706f6f" d="
  M 1802.55 745.51
  Q 1810.49 745.51 1819.90 745.49
  A 0.65 0.65 0.0 0 0 1820.55 744.84
  L 1820.55 717.04
  A 0.65 0.65 0.0 0 1 1821.20 716.39
  L 1838.86 716.39
  A 0.68 0.67 90.0 0 1 1839.53 717.07
  L 1839.53 793.41
  A 0.37 0.37 0.0 0 1 1839.16 793.78
  L 1821.14 793.78
  A 0.58 0.58 0.0 0 1 1820.56 793.20
  L 1820.56 761.16
  A 0.49 0.48 -88.3 0 0 1820.10 760.67
  Q 1819.47 760.64 1802.55 760.64
  Q 1785.63 760.64 1785.00 760.68
  A 0.49 0.48 88.3 0 0 1784.54 761.17
  L 1784.55 793.21
  A 0.58 0.58 0.0 0 1 1783.97 793.79
  L 1765.95 793.79
  A 0.37 0.37 0.0 0 1 1765.58 793.42
  L 1765.56 717.08
  A 0.68 0.67 90.0 0 1 1766.23 716.40
  L 1783.89 716.40
  A 0.65 0.65 0.0 0 1 1784.54 717.05
  L 1784.54 744.85
  A 0.65 0.65 0.0 0 0 1785.19 745.50
  Q 1794.60 745.52 1802.55 745.51
  Z"
/>
<rect fill="#706f6f" x="1859.80" y="716.38" width="19.00" height="77.40" rx="0.37"/>
<path fill="#706f6f" d="
  M 1956.49 770.05
  A 0.03 0.03 0.0 0 0 1956.55 770.03
  L 1956.20 716.76
  A 0.37 0.36 -0.8 0 1 1956.57 716.39
  L 1973.27 716.39
  A 0.52 0.51 -0.0 0 1 1973.79 716.90
  L 1973.80 793.38
  A 0.40 0.39 -0.0 0 1 1973.40 793.77
  L 1953.01 793.77
  A 0.97 0.95 -15.9 0 1 1952.20 793.33
  L 1915.85 735.88
  A 0.08 0.08 0.0 0 0 1915.71 735.93
  Q 1916.27 742.33 1916.29 747.00
  Q 1916.39 766.58 1916.31 793.49
  A 0.29 0.29 0.0 0 1 1916.02 793.78
  L 1899.65 793.78
  A 0.58 0.57 90.0 0 1 1899.08 793.20
  L 1899.07 716.94
  A 0.58 0.57 -0.0 0 1 1899.65 716.37
  L 1920.92 716.37
  A 1.19 1.14 -16.0 0 1 1921.90 716.89
  Q 1927.07 724.81 1945.04 751.63
  Q 1951.24 760.88 1956.49 770.05
  Z"
/>
<path fill="#706f6f" d="
  M 1994.33 716.17
  L 2058.21 716.28
  A 0.63 0.62 90.0 0 1 2058.83 716.91
  L 2058.84 730.98
  A 0.58 0.57 -0.0 0 1 2058.26 731.55
  L 2013.45 731.53
  A 0.60 0.60 0.0 0 0 2012.85 732.13
  L 2012.84 745.63
  A 0.66 0.65 90.0 0 0 2013.49 746.29
  L 2055.90 746.27
  A 0.66 0.65 90.0 0 1 2056.55 746.93
  L 2056.52 760.84
  A 0.56 0.55 -89.5 0 1 2055.97 761.39
  L 2013.33 761.43
  A 0.49 0.49 0.0 0 0 2012.84 761.92
  L 2012.86 778.07
  A 0.56 0.56 0.0 0 0 2013.42 778.63
  L 2060.42 778.64
  A 0.80 0.79 4.3 0 1 2061.21 779.55
  L 2059.15 793.43
  A 0.64 0.63 4.2 0 1 2058.52 793.97
  L 1994.30 793.96
  A 0.46 0.46 0.0 0 1 1993.84 793.50
  L 1993.86 716.63
  A 0.47 0.46 -0.0 0 1 1994.33 716.17
  Z"
/>
<path fill="#706f6f" d="
  M 2132.74 770.06
  A 0.03 0.03 0.0 0 0 2132.80 770.04
  L 2132.44 716.74
  A 0.37 0.36 -0.8 0 1 2132.81 716.37
  L 2149.52 716.37
  A 0.52 0.51 -0.0 0 1 2150.04 716.88
  L 2150.05 793.41
  A 0.40 0.39 -0.0 0 1 2149.65 793.80
  L 2129.25 793.80
  A 0.97 0.95 -16.0 0 1 2128.44 793.36
  L 2092.07 735.87
  A 0.08 0.08 0.0 0 0 2091.93 735.92
  Q 2092.49 742.33 2092.51 747.00
  Q 2092.60 766.60 2092.53 793.52
  A 0.29 0.29 0.0 0 1 2092.24 793.81
  L 2075.86 793.81
  A 0.58 0.57 90.0 0 1 2075.29 793.23
  L 2075.27 716.93
  A 0.58 0.57 -0.0 0 1 2075.85 716.36
  L 2097.14 716.36
  A 1.19 1.15 -16.0 0 1 2098.12 716.88
  Q 2103.30 724.80 2121.27 751.63
  Q 2127.48 760.89 2132.74 770.06
  Z"
/>
<path fill="#706f6f" d="
  M 2201.26 716.41
  L 2218.75 716.41
  A 0.71 0.71 0.0 0 1 2219.45 717.00
  Q 2219.60 717.82 2219.59 721.25
  Q 2219.52 755.75 2219.65 761.06
  C 2219.99 774.57 2226.99 781.78 2240.77 780.47
  C 2252.61 779.35 2254.92 769.71 2254.97 759.74
  Q 2255.06 738.87 2255.00 716.80
  A 0.39 0.39 0.0 0 1 2255.39 716.41
  L 2273.33 716.41
  A 0.68 0.67 0.0 0 1 2274.01 717.08
  Q 2274.06 759.68 2273.80 765.74
  Q 2273.56 771.58 2270.61 778.35
  C 2265.68 789.62 2254.10 794.55 2242.03 795.19
  C 2225.29 796.08 2208.23 792.53 2202.25 774.57
  Q 2200.45 769.16 2200.54 754.96
  Q 2200.72 724.71 2200.58 717.10
  A 0.68 0.68 0.0 0 1 2201.26 716.41
  Z"
/>
<path fill="#706f6f" d="
  M 2350.33 770.05
  A 0.03 0.03 0.0 0 0 2350.39 770.03
  L 2350.04 716.77
  A 0.37 0.36 -0.8 0 1 2350.41 716.40
  L 2367.11 716.40
  A 0.52 0.51 0.0 0 1 2367.63 716.91
  L 2367.63 793.38
  A 0.40 0.39 -0.0 0 1 2367.23 793.77
  L 2346.84 793.77
  A 0.97 0.95 -15.9 0 1 2346.03 793.33
  L 2309.70 735.88
  A 0.08 0.08 0.0 0 0 2309.56 735.93
  Q 2310.12 742.33 2310.14 747.00
  Q 2310.23 766.58 2310.15 793.48
  A 0.29 0.29 0.0 0 1 2309.86 793.77
  L 2293.49 793.77
  A 0.58 0.57 90.0 0 1 2292.92 793.19
  L 2292.92 716.95
  A 0.58 0.57 0.0 0 1 2293.50 716.38
  L 2314.77 716.38
  A 1.19 1.14 -16.0 0 1 2315.75 716.90
  Q 2320.92 724.82 2338.88 751.63
  Q 2345.08 760.88 2350.33 770.05
  Z"
/>
<path fill="#706f6f" d="
  M 2388.54 716.63
  A 0.42 0.42 0.0 0 1 2388.96 716.21
  L 2426.15 716.28
  A 38.27 37.03 0.1 0 1 2464.35 753.38
  L 2464.35 756.70
  A 38.27 37.03 0.1 0 1 2426.01 793.66
  L 2388.82 793.59
  A 0.42 0.42 0.0 0 1 2388.40 793.17
  L 2388.54 716.63
  Z
  M 2407.50 731.18
  L 2407.42 778.78
  A 0.34 0.34 0.0 0 0 2407.76 779.12
  L 2422.72 779.14
  A 21.40 21.38 -89.9 0 0 2444.14 757.78
  L 2444.14 752.30
  A 21.40 21.38 -89.9 0 0 2422.80 730.86
  L 2407.84 730.84
  A 0.34 0.34 0.0 0 0 2407.50 731.18
  Z"
/>
<path fill="#706f6f" d="
  M 2535.94 775.48
  Q 2537.35 767.41 2539.58 758.84
  Q 2544.49 739.99 2551.17 716.94
  A 0.79 0.78 7.7 0 1 2551.93 716.37
  L 2569.15 716.37
  A 0.68 0.67 -8.0 0 1 2569.80 716.85
  Q 2577.69 744.37 2583.89 769.15
  C 2584.40 771.19 2584.63 773.52 2585.04 775.57
  A 0.12 0.12 0.0 0 0 2585.28 775.57
  Q 2591.22 747.46 2599.72 716.69
  A 0.44 0.44 0.0 0 1 2600.14 716.37
  L 2618.39 716.37
  A 0.50 0.50 0.0 0 1 2618.87 717.02
  L 2595.54 793.47
  A 0.45 0.45 0.0 0 1 2595.11 793.78
  L 2575.08 793.78
  A 0.70 0.69 -7.7 0 1 2574.41 793.27
  L 2559.22 737.00
  A 0.09 0.09 0.0 0 0 2559.05 737.01
  Q 2557.79 744.15 2556.32 749.81
  Q 2550.82 771.09 2544.32 793.21
  A 0.81 0.80 -81.8 0 1 2543.55 793.79
  L 2524.18 793.79
  A 0.82 0.80 81.8 0 1 2523.41 793.20
  L 2501.54 716.82
  A 0.35 0.35 0.0 0 1 2501.88 716.37
  L 2520.87 716.37
  A 0.81 0.81 0.0 0 1 2521.65 716.97
  Q 2527.18 738.08 2530.92 753.31
  Q 2533.70 764.68 2535.44 775.48
  A 0.25 0.25 0.0 0 0 2535.94 775.48
  Z"
/>
<path fill="#706f6f" d="
  M 2694.24 731.54
  L 2649.41 731.54
  A 0.57 0.57 0.0 0 0 2648.84 732.11
  L 2648.84 745.71
  A 0.57 0.57 0.0 0 0 2649.41 746.28
  L 2691.94 746.28
  A 0.57 0.57 0.0 0 1 2692.51 746.85
  L 2692.51 760.83
  A 0.57 0.57 0.0 0 1 2691.94 761.40
  L 2649.40 761.40
  A 0.57 0.57 0.0 0 0 2648.83 761.97
  L 2648.83 778.06
  A 0.57 0.57 0.0 0 0 2649.40 778.63
  L 2696.64 778.63
  A 0.57 0.57 0.0 0 1 2697.20 779.28
  L 2695.12 793.46
  A 0.57 0.57 0.0 0 1 2694.56 793.95
  L 2630.41 793.95
  A 0.57 0.57 0.0 0 1 2629.84 793.38
  L 2629.84 716.80
  A 0.57 0.57 0.0 0 1 2630.41 716.23
  L 2694.24 716.23
  A 0.57 0.57 0.0 0 1 2694.81 716.80
  L 2694.81 730.97
  A 0.57 0.57 0.0 0 1 2694.24 731.54
  Z"
/>
<path fill="#706f6f" d="
  M 2780.94 792.93
  A 0.64 0.63 80.2 0 1 2780.35 793.78
  L 2762.13 793.78
  A 1.26 1.25 85.7 0 1 2760.89 792.71
  Q 2759.79 785.48 2760.17 777.26
  C 2760.25 775.47 2760.05 770.45 2758.79 768.54
  Q 2756.43 764.94 2751.97 764.45
  Q 2744.02 763.57 2730.61 763.95
  A 0.56 0.56 0.0 0 0 2730.06 764.51
  L 2730.06 793.22
  A 0.57 0.56 0.0 0 1 2729.49 793.78
  L 2712.04 793.78
  A 0.81 0.80 0.0 0 1 2711.23 792.98
  L 2711.23 716.97
  A 0.59 0.59 0.0 0 1 2711.83 716.38
  Q 2725.71 716.40 2752.91 716.36
  C 2761.27 716.36 2767.99 717.39 2774.17 721.80
  Q 2780.84 726.55 2781.91 734.72
  Q 2784.05 750.98 2769.34 756.46
  A 0.25 0.24 45.5 0 0 2769.34 756.92
  C 2778.13 760.46 2780.03 767.88 2779.93 777.09
  Q 2779.86 782.99 2780.23 788.75
  Q 2780.40 791.44 2780.94 792.93
  Z
  M 2730.09 730.77
  L 2730.05 749.23
  A 0.38 0.38 0.0 0 0 2730.43 749.61
  L 2751.70 749.65
  A 10.97 8.65 0.1 0 0 2762.69 741.02
  L 2762.69 739.10
  A 10.97 8.65 0.1 0 0 2751.74 730.43
  L 2730.47 730.39
  A 0.38 0.38 0.0 0 0 2730.09 730.77
  Z"
/>
<path fill="#706f6f" d="
  M 2879.07 793.20
  A 0.35 0.35 0.0 0 1 2878.81 793.78
  L 2856.61 793.78
  A 1.94 1.92 69.4 0 1 2855.15 793.11
  L 2827.60 760.69
  A 0.62 0.62 0.0 0 0 2826.72 760.63
  Q 2824.16 762.85 2818.28 767.54
  C 2817.10 768.48 2817.38 770.16 2817.38 771.58
  Q 2817.40 791.21 2817.34 793.26
  A 0.54 0.54 0.0 0 1 2816.80 793.79
  L 2798.96 793.79
  A 0.54 0.53 -90.0 0 1 2798.43 793.25
  L 2798.43 717.02
  A 0.63 0.63 0.0 0 1 2799.06 716.39
  L 2816.88 716.39
  A 0.52 0.52 0.0 0 1 2817.40 716.91
  L 2817.40 749.18
  A 0.30 0.30 0.0 0 0 2817.90 749.40
  L 2853.83 716.77
  A 1.50 1.49 23.4 0 1 2854.85 716.37
  L 2876.83 716.37
  A 0.32 0.31 -66.1 0 1 2877.04 716.92
  L 2841.24 749.44
  A 0.40 0.39 -41.3 0 0 2841.20 749.99
  L 2879.07 793.20
  Z"
/>
<path fill="#706f6f" d="
  M 2959.55 778.96
  A 0.62 0.61 4.0 0 1 2960.16 779.66
  L 2958.13 793.45
  A 0.40 0.39 -85.8 0 1 2957.74 793.79
  L 2886.22 793.79
  A 0.63 0.63 0.0 0 1 2885.59 793.16
  L 2885.59 780.46
  A 1.21 1.20 67.2 0 1 2885.93 779.62
  L 2931.71 731.74
  A 0.35 0.35 0.0 0 0 2931.46 731.15
  L 2888.53 731.15
  A 0.64 0.63 0.0 0 1 2887.89 730.52
  L 2887.89 716.90
  A 0.56 0.56 0.0 0 1 2888.45 716.34
  L 2955.65 716.34
  A 0.91 0.91 0.0 0 1 2956.56 717.22
  C 2956.81 723.40 2957.47 730.17 2954.51 733.27
  Q 2922.25 767.01 2911.12 778.51
  A 0.27 0.26 -68.0 0 0 2911.31 778.96
  L 2959.55 778.96
  Z"
/>
<path fill="#706f6f" d="
  M 2972.83 716.17
  L 3036.71 716.29
  A 0.63 0.62 90.0 0 1 3037.33 716.92
  L 3037.34 730.98
  A 0.58 0.57 -0.0 0 1 3036.76 731.55
  L 2991.96 731.53
  A 0.60 0.60 0.0 0 0 2991.36 732.13
  L 2991.35 745.64
  A 0.66 0.65 90.0 0 0 2992.00 746.30
  L 3034.40 746.28
  A 0.66 0.65 90.0 0 1 3035.05 746.94
  L 3035.02 760.85
  A 0.56 0.55 -89.5 0 1 3034.47 761.40
  L 2991.84 761.43
  A 0.49 0.49 0.0 0 0 2991.35 761.92
  L 2991.36 778.07
  A 0.56 0.56 0.0 0 0 2991.92 778.63
  L 3038.92 778.64
  A 0.80 0.79 4.3 0 1 3039.71 779.55
  L 3037.65 793.43
  A 0.64 0.63 4.2 0 1 3037.02 793.97
  L 2972.81 793.96
  A 0.46 0.46 0.0 0 1 2972.34 793.50
  L 2972.36 716.63
  A 0.47 0.46 -0.0 0 1 2972.83 716.17
  Z"
/>
<path fill="#706f6f" d="
  M 3052.58 717.08
  A 0.68 0.68 0.0 0 1 3053.26 716.39
  L 3070.75 716.38
  A 0.71 0.71 0.0 0 1 3071.45 716.97
  Q 3071.60 717.79 3071.60 721.22
  Q 3071.54 755.73 3071.67 761.04
  C 3072.01 774.56 3079.02 781.77 3092.80 780.45
  C 3104.64 779.33 3106.95 769.69 3107.00 759.71
  Q 3107.08 738.84 3107.01 716.76
  A 0.39 0.39 0.0 0 1 3107.40 716.37
  L 3125.35 716.37
  A 0.68 0.67 -0.0 0 1 3126.03 717.04
  Q 3126.09 759.65 3125.83 765.71
  Q 3125.60 771.55 3122.65 778.32
  C 3117.72 789.60 3106.14 794.53 3094.07 795.18
  C 3077.32 796.07 3060.26 792.53 3054.27 774.56
  Q 3052.47 769.15 3052.55 754.95
  Q 3052.72 724.69 3052.58 717.08
  Z"
/>
<path fill="#706f6f" d="
  M 690.03 756.04
  L 642.98 756.04
  L 690.03 756.04
  Z"
/>
</svg>
