<?xml version="1.0" encoding="UTF-8"?>
<svg id="Ebene_1" xmlns="http://www.w3.org/2000/svg" version="1.1" viewBox="0 0 3448 911">
  <!-- Generator: Adobe Illustrator 30.2.1, SVG Export Plug-In . SVG Version: 2.1.1 Build 1)  -->
  <defs>
    <style>
      .st0 {
        fill: #706f6f;
      }

      .st1 {
        fill: #cc071e;
      }
    </style>
  </defs>
  <path class="st1" d="M2051.52,475.2c22.83-1.02,40.94-1.64,54.34-1.87,13.49-.23,27.82.09,42.99.94,16.23.91,30.13,6.89,41.68,17.92,8.78,8.39,14.92,18.43,18.41,30.13,1.53,5.15,2.5,12.12,2.89,20.91.52,11.74.64,26.06.37,42.95-.17,10.94-.89,21.89-2.16,32.86-1.64,14.25-7.4,26.25-17.29,35.99-11.98,11.79-26.31,18.44-42.99,19.94-7,.63-15.55,1.02-25.65,1.17-14.71.21-31.96-.09-51.75-.92-23.52-.99-45.24-1.18-65.16-.57-5.34.17-9.38-.01-12.12-.53-3.94-.75-7.82-1.96-11.63-3.61-22.18-9.61-39.78-29.51-41.34-54.16-1.82-28.79-1.85-57.03-.1-84.74,1.68-26.59,26.89-50.57,52.09-56.12.99-.22,2-.3,3.02-.24,6.81.41,15.31.57,25.49.5.58,0,5.4-.07,14.47-.19,6.03-.08,10.84-.2,14.44-.36ZM2068.55,539.26c0-15.3-12.4-27.7-27.7-27.7s-27.7,12.4-27.7,27.7,12.4,27.7,27.7,27.7,27.7-12.4,27.7-27.7ZM2112.01,567.3c35.95-.43,35.64-56.47-.66-56.04s-35.28,56.47.66,56.04Z"/>
  <path class="st1" d="M1698.25,562.75l160.8.02c.07,0,.13,0,.19-.02,7.92-2.34,7.68-20.03.68-23.31-.28-.13-.59-.2-.89-.2h-160.82c-.33,0-.6-.26-.6-.59h0v-63.32c0-.33.27-.6.6-.6,20.61-.05,83.91-.05,189.89-.02,12.01,0,24.74,8.75,33.37,16.78,8.01,7.46,11.54,16.75,13.42,27.36,3.94,22.23,3.6,46.67-2.19,68.84-3.7,14.2-15.11,24.58-27.87,31.41-6.44,3.45-12.93,5.17-19.46,5.18h-115.51c-.23,0-.41.18-.41.4h0v50.08c0,.15-.13.28-.29.28h-70.95c-.33,0-.59-.26-.59-.59v-111.06c0-.35.28-.64.63-.64h0Z"/>
  <path class="st1" d="M2219.98,674.29v-110.95c0-.33.26-.6.59-.6,53.87,0,107.5.02,160.89.04.65,0,1.59-.55,2.81-1.66,4.66-4.25,4.54-18.66-2.03-21.65-.34-.15-.7-.23-1.06-.23h-160.55c-.35,0-.64-.29-.64-.64h0v-63.47c0-.24.2-.44.44-.44h0c114.89.03,175.47.03,181.74-.02,8.93-.07,14.69.32,17.28,1.18,13.69,4.55,25.65,15.08,33.15,27.77,4.13,6.97,5.39,14.51,6.12,22.84,1.29,14.61,1.17,29.58-.35,44.9-.49,4.99-1.26,9.64-2.29,13.97-4.19,17.48-22.64,34.26-40.2,38.17-2.36.53-6.22.79-11.58.79-43.91,0-81.19-.02-111.84-.03-.35,0-.64.29-.64.64h0v49.5c0,.35-.28.63-.63.63h-70.47c-.41,0-.74-.33-.74-.74h0Z"/>
  <path class="st1" d="M2465.53,675.06c-.41,0-.74-.33-.74-.74l-.02-110.96c0-.33.26-.6.59-.6h0c53.87,0,107.51,0,160.91.02.65,0,1.59-.55,2.81-1.66,4.67-4.25,4.54-18.67-2.03-21.66-.34-.15-.7-.23-1.06-.23l-160.57.02c-.35,0-.64-.29-.64-.64h0v-63.47c-.01-.24.19-.44.43-.44h0c114.91.01,175.5,0,181.77-.05,8.93-.07,14.69.32,17.28,1.18,13.69,4.55,25.65,15.08,33.16,27.77,4.13,6.97,5.39,14.51,6.12,22.84,1.29,14.62,1.17,29.59-.34,44.91-.49,4.99-1.26,9.64-2.29,13.97-4.19,17.48-22.64,34.27-40.2,38.18-2.36.53-6.22.79-11.58.79-43.92,0-81.21,0-111.86-.01-.35,0-.64.29-.64.64v49.5c.01.35-.27.63-.62.63h-70.48,0Z"/>
  <path class="st1" d="M1562.16,596.48c9.14,2.11,17.91,11.01,22.63,18.68.75,1.21,1.12,2.7,1.13,4.45.04,28.17.04,46.55,0,55.12,0,.17-.15.31-.32.31h-69.39c-.44,0-.79-.35-.79-.79.04-10.92.04-23.88,0-38.89-.01-3.63-2.93-6.02-6.08-8.95-1.56-1.46-3.46-2.19-5.71-2.18-36.92.11-68.42.11-94.49,0-.43,0-.77.33-.78.76h0v49.46c0,.33-.26.59-.59.59h-69.3c-.33,0-.6-.27-.6-.6v-111.36c0-.16.13-.29.28-.29h0c46.28-.05,102.91-.05,169.89,0,2.17,0,4.56-2.41,5.41-4.59,2.16-5.52,2.42-16.16-4.37-18.79-.29-.11-.6-.17-.91-.17h-167.41c-.28,0-.54-.11-.74-.3l-1.76-1.68c-.25-.24-.39-.56-.39-.9v-60.86c0-.33.27-.6.6-.6h208.55c.5,0,1.01.06,1.51.18,16.81,4.14,32.61,18.61,37.05,35.53,7.38,28.08,5.66,68.89-23.52,85.22-.17.1-.22.31-.12.48.05.08.13.14.22.17h0Z"/>
  <path class="st1" d="M2926.12,537.08l-2.27,2.05c-.08.07-.18.11-.28.11h-146.33c-.23,0-.41.18-.41.41v71.95c0,.23.18.41.41.41h146.54c.11,0,.22.05.3.13l2.06,2.27c.07.08.11.18.11.28v59.94c0,.23-.18.41-.41.41h-218.91c-.23,0-.41-.18-.41-.41h0v-199.32c0-.23.18-.41.41-.41h218.91c.23,0,.41.18.41.41v61.47c0,.11-.05.22-.13.3h0Z"/>
  <path class="st1" d="M2942.63,474.9h70.98c.33,0,.59.26.59.59h0v120.4c0,3.9-1.72,4.51-5.4,4.5-34.62-.06-56.59-.06-65.9-.01-.32,0-.58-.26-.58-.57h0v-124.6c0-.17.14-.31.31-.31h0Z"/>
  <rect class="st1" x="2790.02" y="550.91" width="136.24" height="49.44" rx="3.8" ry="3.8"/>
  <path class="st1" d="M973.86,798.83c-57.71,0-132.3.07-223.75.23-17.89.03-31.71-14.09-35.83-30.8-.09-.38-.13-.77-.12-1.15.74-17.39.96-30.55.66-39.5-1.35-40.75-2.06-63.41-2.14-68-.35-19.41.03-35.9,1.14-49.49,1.35-16.56,12.17-29.58,27.93-34.37,1.85-.56,4.35-.83,7.5-.82,1.17,0,75.99.01,224.45.02,57.71,0,132.3-.08,223.75-.24,17.89-.03,31.71,14.09,35.83,30.8.09.38.13.77.12,1.15-.74,17.39-.96,30.55-.66,39.5,1.35,40.75,2.06,63.41,2.14,68,.35,19.41-.03,35.9-1.14,49.49-1.35,16.56-12.17,29.58-27.93,34.37-1.85.56-4.35.83-7.5.82-1.17,0-75.99,0-224.45-.01h0Z"/>
  <rect class="st1" x="2942.3" y="612.01" width="307.64" height="63.04" rx=".52" ry=".52"/>
  <rect class="st1" x="1605.06" y="612.01" width="61.36" height="63.04" rx=".51" ry=".51"/>
  <path class="st0" d="M1601.84,743.62c.02.2-.12.38-.32.4h-18.12c-.44,0-.83-.29-.95-.71-2.74-9.1-15.55-9.21-23.05-7.63-3.5.74-6.78,3.2-6.69,7.14.12,4.84,5.99,6.61,10.19,7.47,12.94,2.64,22.5,3.94,32.15,9.36,5.05,2.84,8.49,7.23,9.4,13.16,4.6,30.09-35.26,31.95-53.62,26.7-11.34-3.25-18.31-10.61-20.92-22.09-.07-.29.1-.58.39-.65.04-.01.09-.02.14-.02h18.3c.3,0,.57.2.67.49,1.74,5.41,6.2,8.67,11.78,9.85,4.96,1.05,20.39,2.16,23.15-4.09,3.85-8.73-4.86-11.59-11.7-13.16-11.88-2.74-35.25-4.37-38.72-19.58-1.85-8.13-.18-14.82,5.01-20.05,9.72-9.79,27.98-10.4,41.04-7.74,11.04,2.25,20.5,9.5,21.87,21.15h0Z"/>
  <path class="st0" d="M1695.86,747.26h-18.2c-.34,0-.66-.21-.79-.53-1.91-4.67-5.2-7.83-9.85-9.48-3.4-1.21-8.51-1.85-11.97-1.29-10.59,1.7-16.79,8.2-18.6,19.5-1.22,7.63.15,17.74,5,23.82,5.01,6.29,12.19,8.77,21.54,7.46,6.53-.92,11.09-4.45,13.7-10.58.2-.48.68-.8,1.21-.8h17.89c.24,0,.43.19.43.43,0,.04,0,.08-.02.11-3.8,13.1-12.39,21.25-25.77,24.44-6.91,1.65-14.09,1.9-21.52.76-24.64-3.78-36.8-25.5-31.93-48.93,3.72-17.9,18.47-29.7,36.39-30.82,10.7-.67,20.97.47,30.15,6.55,6.73,4.46,11.03,10.68,12.91,18.65.07.31-.12.62-.44.7-.04.01-.09.02-.13.01h0Z"/>
  <path class="st0" d="M3145.7,770.25h-17.48c-.47,0-.86-.38-.86-.86h0v-13.14c0-.31.26-.57.57-.57h35.99c.34,0,.61.27.61.61v43.25c0,.34-.27.61-.61.61h-12.51c-.4,0-.74-.29-.8-.69l-.89-6.09c-.03-.25-.26-.43-.51-.4-.11.01-.21.07-.29.15-4.33,4.7-10.03,7.42-17.08,8.16-6.7.71-13.76.77-19.89-.79-19.79-5.06-29.09-22.01-27.77-42.1,1.45-22.17,17.07-35.69,38.67-37.12,17.17-1.13,37.85,4.85,41.8,24.15.05.23-.09.46-.32.51h-17.75c-.41,0-.79-.21-1.01-.56-.17-.26-.57-.91-1.2-1.94-4.97-8.04-16.48-9.21-24.91-6.94-13.77,3.71-16.86,19.16-14.77,31.35,1.8,10.45,8.07,17.88,18.68,19.16,11.51,1.39,22.78-2.59,22.93-16.15,0-.33-.26-.6-.59-.61h-.01,0Z"/>
  <path class="st0" d="M3183.51,722.52l63.93.08c.34,0,.62.28.62.63l.02,14.07c0,.31-.26.57-.58.57h-44.84c-.33,0-.6.28-.6.61h0v13.52c0,.36.29.66.65.66h0l42.44-.05c.36,0,.65.3.65.66l-.02,13.92c0,.31-.25.55-.55.55l-42.67.06c-.27,0-.49.22-.49.49l.02,16.16c0,.31.25.56.56.56h0l47.03-.02c.44,0,.8.36.8.79v.12l-2.05,13.9c-.04.31-.31.54-.63.54l-64.25.02c-.25,0-.46-.21-.46-.46l-.04-76.91c0-.25.2-.46.46-.47h.01,0Z"/>
  <path class="st0" d="M1352.05,736.64c.07.63.14,1.38.2,2.25,1.25,18.37,1.59,38.6,1.03,60.7,0,.31-.26.56-.58.56h-16.02c-.2,0-.36-.16-.36-.35v-76.64c0-.24.19-.43.43-.43h26.56c.3,0,.57.19.66.47,5.9,17.71,10.54,32.02,13.93,42.93,1.01,3.27,2.04,7.03,3.09,11.29,0,.01.03.02.04,0h0l17.89-54.44c.05-.15.18-.25.33-.25h26.96c.29,0,.53.24.53.54h0v76.36c0,.29-.23.52-.52.52h-17.08c-.32,0-.58-.26-.58-.58h0v-63.08s-.02-.07-.06-.08c-.04,0-.07.02-.08.06-.66,2.38-1.04,4.55-1.83,7.12-4.46,14.61-10.4,33.19-17.81,55.76-.16.48-.6.8-1.09.8h-15.4c-.34,0-.65-.23-.74-.56l-19.04-63.05c-.03-.13-.16-.21-.29-.18s-.21.16-.19.29h.02Z"/>
  <path class="st0" d="M1505.55,799.9l-7.31-17.15c-.06-.15-.2-.24-.36-.24h-33.58c-.16,0-.3.09-.36.24l-6.94,17.15c-.06.15-.2.24-.36.24h-18.72c-.22,0-.39-.17-.39-.39,0-.05.01-.1.03-.15l31.02-76.63c.06-.15.2-.24.36-.24h24.1c.16,0,.3.09.36.24l32.69,76.63c.08.2-.01.43-.21.51-.05.02-.1.03-.15.03h-19.82c-.16,0-.3-.09-.36-.24h0ZM1480.82,767.3c4.22-.06,8.08-.09,11.59-.08.22,0,.39-.17.39-.39,0-.05-.01-.1-.03-.15-4.65-10.93-8.75-21.32-12.32-31.18-.01-.04-.04-.06-.07-.06s-.06.02-.07.07c-3.29,9.95-7.11,20.45-11.45,31.5-.08.2.02.43.22.5.05.02.1.03.15.03,3.51-.1,7.37-.18,11.59-.24h0Z"/>
  <path class="st0" d="M1746.66,751.87c5.29,0,11.08,0,17.35-.02.36,0,.65-.29.65-.65v-27.8c0-.36.29-.65.65-.65h17.66c.37,0,.67.3.67.68h0v76.34c0,.2-.17.37-.37.37h-18.02c-.32,0-.58-.26-.58-.58v-32.04c0-.26-.2-.48-.46-.49-.42-.02-6.27-.03-17.55-.03s-17.13.01-17.55.04c-.26.01-.46.23-.46.49v32.04c.01.32-.25.58-.57.58h-18.02c-.2,0-.37-.17-.37-.37l-.02-76.34c0-.38.3-.68.67-.68h17.66c.36,0,.65.29.65.65v27.8c0,.36.29.65.65.65,6.27.01,12.06.02,17.36.01h0Z"/>
  <rect class="st0" x="1803.91" y="722.74" width="19" height="77.4" rx=".37" ry=".37"/>
  <path class="st0" d="M1900.6,776.41s.02.03.04.02c.02,0,.03-.02.02-.04h0l-.35-53.27c0-.2.16-.36.36-.37h16.71c.29,0,.52.23.52.51h0v76.48c.01.22-.17.39-.39.39h-20.39c-.33,0-.64-.17-.81-.44l-36.35-57.45s-.08-.04-.11,0c-.02.01-.03.04-.03.06.37,4.27.57,7.96.58,11.07.07,13.05.07,28.55.02,46.49,0,.16-.13.29-.29.29h-16.37c-.31,0-.57-.26-.57-.58h0v-76.26c-.01-.31.25-.57.57-.57h21.27c.4,0,.77.2.98.52,3.45,5.28,11.16,16.86,23.14,34.74,4.13,6.17,7.95,12.31,11.45,18.42h0Z"/>
  <path class="st0" d="M1938.44,722.53l63.88.11c.34,0,.62.28.62.63h0v14.07c.01.31-.25.57-.57.57h0l-44.81-.02c-.33,0-.6.27-.6.6v13.5c-.01.36.28.66.64.66l42.41-.02c.36,0,.65.3.65.66h0l-.03,13.91c0,.31-.25.55-.55.55l-42.64.04c-.27,0-.49.22-.49.49l.02,16.15c0,.31.25.56.56.56h47c.44.01.8.37.8.8v.12l-2.06,13.88c-.04.31-.31.54-.63.54h-64.22c-.25,0-.46-.22-.46-.47h0l.02-76.87c0-.25.21-.46.47-.46h-.01Z"/>
  <path class="st0" d="M2076.85,776.42s.02.03.04.02.03-.02.02-.04h0l-.36-53.3c0-.2.16-.36.36-.37h16.72c.29,0,.52.23.52.51h0v76.53c.01.22-.17.39-.39.39h-20.4c-.33,0-.64-.17-.81-.44l-36.37-57.49s-.08-.04-.11,0c-.02.01-.03.04-.03.06.37,4.27.57,7.97.58,11.08.06,13.07.07,28.57.02,46.52,0,.16-.13.29-.29.29h-16.38c-.31,0-.57-.26-.57-.58h0l-.02-76.3c0-.31.26-.57.58-.57h21.29c.4,0,.77.2.98.52,3.45,5.28,11.17,16.86,23.15,34.75,4.14,6.17,7.96,12.32,11.47,18.43h0Z"/>
  <path class="st0" d="M2145.37,722.77h17.49c.35,0,.64.25.7.59.1.55.15,1.96.14,4.25-.05,23-.03,36.27.06,39.81.34,13.51,7.34,20.72,21.12,19.41,11.84-1.12,14.15-10.76,14.2-20.73.06-13.91.07-28.23.03-42.94,0-.22.17-.39.39-.39h17.94c.38,0,.68.3.68.67.03,28.4-.04,44.62-.21,48.66-.16,3.89-1.22,8.1-3.19,12.61-4.93,11.27-16.51,16.2-28.58,16.84-16.74.89-33.8-2.66-39.78-20.62-1.2-3.61-1.77-10.14-1.71-19.61.12-20.17.13-32.79.04-37.86,0-.38.29-.68.67-.69h.01Z"/>
  <path class="st0" d="M2294.44,776.41s.02.03.04.02c.02,0,.03-.02.02-.04l-.35-53.26c0-.2.16-.36.36-.37h16.71c.29,0,.52.23.52.51v76.47c0,.22-.18.39-.4.39h-20.39c-.33,0-.64-.17-.81-.44l-36.33-57.45s-.08-.04-.11,0c-.02.01-.03.04-.03.06.37,4.27.57,7.96.58,11.07.06,13.05.06,28.55.01,46.48,0,.16-.13.29-.29.29h-16.37c-.31,0-.57-.26-.57-.58h0v-76.24c0-.31.26-.57.58-.57h21.27c.4,0,.77.2.98.52,3.45,5.28,11.16,16.86,23.13,34.73,4.13,6.17,7.95,12.31,11.45,18.42h0Z"/>
  <path class="st0" d="M2332.65,722.99c0-.23.19-.42.42-.42l37.19.07c21.14.04,38.24,16.65,38.2,37.1v3.32c-.04,20.45-17.2,37-38.34,36.96h0l-37.19-.07c-.23,0-.42-.19-.42-.42h0l.14-76.54h0ZM2351.61,737.54l-.08,47.6c0,.19.15.34.34.34h0l14.96.02c11.81.02,21.4-9.54,21.42-21.36v-5.48c.02-11.82-9.53-21.42-21.34-21.44l-14.96-.02c-.19,0-.34.15-.34.34h0Z"/>
  <path class="st0" d="M2480.05,781.84c.94-5.38,2.15-10.93,3.64-16.64,3.27-12.57,7.14-26.53,11.59-41.9.09-.34.41-.57.76-.57h17.22c.3,0,.57.2.65.48,5.26,18.35,9.96,35.78,14.09,52.3.51,2.04.74,4.37,1.15,6.42,0,.07.05.12.12.12s.12-.05.12-.12c3.96-18.74,8.77-38.37,14.44-58.88.05-.19.22-.32.42-.32h18.25c.28,0,.5.22.5.5,0,.05,0,.1-.02.15l-23.33,76.45c-.06.19-.23.31-.43.31h-20.03c-.31,0-.59-.21-.67-.51l-15.19-56.27s-.07-.07-.12-.05c-.03.01-.04.03-.05.06-.84,4.76-1.75,9.03-2.73,12.8-3.67,14.19-7.67,28.65-12,43.4-.1.34-.42.58-.77.58h-19.37c-.35,0-.67-.24-.77-.59l-21.87-76.38c-.06-.19.05-.38.24-.44.03-.01.07-.02.1-.01h18.99c.37,0,.69.25.78.6,3.69,14.07,6.78,26.19,9.27,36.34,1.85,7.58,3.36,14.97,4.52,22.17,0,.14.11.25.25.25s.25-.11.25-.25h0Z"/>
  <path class="st0" d="M2638.35,737.9h-44.83c-.31,0-.57.26-.57.57v13.6c0,.31.26.57.57.57h42.53c.31,0,.57.26.57.57h0v13.98c0,.31-.26.57-.57.57h-42.54c-.31,0-.57.26-.57.57v16.09c0,.31.26.57.57.57h47.24c.31,0,.57.26.57.57v.08l-2.08,14.18c-.04.28-.28.49-.56.49h-64.15c-.31,0-.57-.26-.57-.57v-76.58c0-.31.26-.57.57-.57h63.83c.31,0,.57.26.57.57h0v14.17c0,.31-.26.57-.57.57h-.01Z"/>
  <path class="st0" d="M2725.05,799.29c.12.33-.06.7-.38.81-.07.02-.14.04-.21.04h-18.22c-.62,0-1.15-.45-1.24-1.07-.73-4.82-.97-9.97-.72-15.45.08-1.79-.12-6.81-1.38-8.72-1.57-2.4-3.85-3.76-6.82-4.09-5.3-.59-12.42-.75-21.36-.5-.31,0-.55.25-.55.56v28.71c0,.31-.26.56-.57.56h-17.45c-.45,0-.81-.36-.81-.8h0v-76.01c0-.33.26-.59.59-.59h.01c9.25.01,22.95,0,41.08-.02,8.36,0,15.08,1.03,21.26,5.44,4.45,3.17,7.03,7.47,7.74,12.92,1.43,10.84-2.76,18.09-12.57,21.74-.13.04-.19.18-.15.31.02.07.08.12.15.15,8.79,3.54,10.69,10.96,10.59,20.17-.05,3.93.05,7.82.3,11.66.11,1.79.35,3.19.71,4.18h0ZM2674.2,737.13l-.04,18.46c0,.21.17.38.38.38l21.27.04c6.06.01,10.98-3.85,10.99-8.63h0v-1.92c0-4.78-4.89-8.66-10.95-8.67l-21.27-.04c-.21,0-.38.17-.38.38h0Z"/>
  <path class="st0" d="M2823.18,799.56c.13.15.11.37-.03.49-.06.05-.14.09-.23.09h-22.2c-.56,0-1.09-.24-1.46-.67l-27.55-32.42c-.22-.26-.61-.29-.87-.07h0c-1.71,1.48-4.52,3.78-8.44,6.91-1.18.94-.9,2.62-.9,4.04.01,13.09,0,20.31-.04,21.68,0,.29-.25.53-.54.53h-17.84c-.29,0-.53-.24-.53-.54h0v-76.23c0-.35.28-.63.63-.63h17.82c.29,0,.52.23.52.52v32.27c0,.17.14.3.3.3.07,0,.14-.03.2-.08l35.93-32.63c.28-.26.64-.4,1.02-.4h21.98c.17,0,.31.13.31.31,0,.09-.04.18-.1.24l-35.8,32.52c-.16.15-.18.39-.04.55l37.87,43.21h0Z"/>
  <path class="st0" d="M2903.66,785.32c.34,0,.62.28.62.61v.09l-2.03,13.79c-.03.2-.2.34-.39.34h-71.52c-.35,0-.63-.28-.63-.63v-12.7c0-.31.12-.62.34-.84l45.78-47.88c.13-.14.13-.36-.01-.49-.06-.06-.15-.09-.24-.1h-42.93c-.35,0-.64-.28-.64-.63h0v-13.62c0-.31.25-.56.56-.56h67.2c.49,0,.89.39.91.88.25,6.18.91,12.95-2.05,16.05-21.51,22.49-35.97,37.57-43.39,45.24-.1.11-.1.28,0,.38.05.05.11.07.18.07h48.24,0Z"/>
  <path class="st0" d="M2916.94,722.53l63.88.12c.34,0,.62.28.62.63h0v14.06c.01.31-.25.57-.57.57h0l-44.8-.02c-.33,0-.6.27-.6.6v13.51c-.01.36.28.66.64.66l42.4-.02c.36,0,.65.3.65.66h0l-.03,13.91c0,.31-.25.55-.55.55l-42.63.03c-.27,0-.49.22-.49.49v16.15c.01.31.26.56.57.56h47c.44.01.8.37.8.8v.12l-2.06,13.88c-.04.31-.31.54-.63.54h-64.21c-.25,0-.46-.21-.47-.46h0l.02-76.88c0-.25.21-.46.47-.46h0Z"/>
  <path class="st0" d="M2996.69,723.44c0-.38.29-.68.67-.69h17.5c.35-.01.64.24.7.58.1.55.15,1.96.15,4.25-.04,23.01-.02,36.28.07,39.82.34,13.52,7.35,20.73,21.13,19.41,11.84-1.12,14.15-10.76,14.2-20.74.05-13.91.06-28.23.01-42.95,0-.22.17-.39.39-.39h17.95c.38,0,.68.3.68.67.04,28.41-.03,44.63-.2,48.67-.15,3.89-1.21,8.1-3.18,12.61-4.93,11.28-16.51,16.21-28.58,16.86-16.75.89-33.81-2.65-39.8-20.62-1.2-3.61-1.77-10.14-1.72-19.61.11-20.17.12-32.8.03-37.87h0Z"/>
  <g>
    <path class="st1" d="M467.63,717.26c0-.15.12-.27.27-.27l18.49.07c5.2.02,9.41,2.95,9.4,6.54v.94c-.01,3.6-4.24,6.5-9.44,6.48h0l-18.49-.07c-.15,0-.27-.12-.27-.27h0l.04-13.42h0Z"/>
    <g>
      <path class="st1" d="M398.68,717.22c0-.24.19-.43.43-.43l18.76-.16c5.01-.04,9.09,2.69,9.12,6.11l.02,1.3c.03,3.42-4.01,6.23-9.01,6.27h0l-18.76.16c-.24,0-.43-.19-.43-.43l-.12-12.82h0Z"/>
      <g>
        <path class="st1" d="M255.57,716.48c0-.37.3-.67.67-.67h.01l18.73.07c5.09.02,9.2,2.94,9.19,6.53v1.36c-.01,3.59-4.15,6.49-9.24,6.47h-.01l-18.72-.07c-.37,0-.67-.3-.67-.67l.04-13.02h0Z"/>
        <g>
          <path class="st1" d="M1238.06,155.29c-.04-10.06-6.51-20.78-13.48-28.18-7.4-7.85-16.14-13.79-26.22-17.82-.13-.05-.27-.08-.41-.08H198.22c-.38,0-.69.31-.69.69v688.14c0,.4.33.73.73.73h476.96c.14,0,.26-.12.26-.26v-269.16c0-.34.28-.62.63-.62,340.35.05,514.44.03,522.25-.06,4.63-.05,9.71-3.39,13.5-6.3,7.64-5.89,14.2-12.74,19.69-20.56,3.31-4.71,5.41-9.16,6.32-13.34.07-.35.12-.7.14-1.05.07-1.15.1-6.76.11-16.81.04-187.73.02-292.84-.06-315.32h0ZM342.87,696.89c0-3.62,2.94-6.56,6.56-6.56h0c3.62,0,6.56,2.94,6.56,6.56s-2.94,6.56-6.56,6.56-6.56-2.94-6.56-6.56h0ZM326.82,690.32c3.63,0,6.57,2.94,6.57,6.57s-2.94,6.57-6.57,6.57-6.57-2.94-6.57-6.57,2.94-6.57,6.57-6.57ZM299.35,728.38c-2.95,8.18-13.71,11.29-21.95,11.54-5.4.16-12.49.17-21.26.04-.24,0-.44.2-.44.44l-.02,18.22c0,.23-.19.42-.42.42l-15.63-.02c-.33,0-.6-.27-.6-.61l.05-51.57h0c0-.35.28-.62.62-.61,24.27.01,37.1.06,38.47.13,11.94.63,26.47,7.39,21.18,22.02h0ZM369.93,748.56c-.01,6.85-5.58,12.4-12.43,12.39l-38.92-.07c-6.85-.01-12.4-5.58-12.39-12.43l.05-28.1c.01-6.85,5.58-12.4,12.43-12.39l38.92.07c6.85.01,12.4,5.58,12.39,12.43l-.05,28.1ZM442.75,728.73c-2.97,8.24-13.81,11.39-22.11,11.66-5.44.17-12.59.19-21.44.08-.24,0-.43.2-.43.44v18.37h.01c0,.08-.03.15-.07.22-.07.12-.2.2-.35.2h-15.76c-.34,0-.61-.27-.61-.61l-.03-51.98c0-.34.28-.62.62-.62,24.47-.03,37.39,0,38.78.07,12.04.62,26.69,7.4,21.39,22.17ZM511.54,729.32c-2.98,8.27-13.85,11.42-22.18,11.68-5.45.17-12.62.19-21.49.07-.24,0-.44.2-.44.44v18.42c0,.23-.19.42-.42.42h-15.8c-.34,0-.61-.28-.61-.62v-52.12c0-.34.28-.62.62-.62,24.53-.01,37.5.02,38.89.09,12.07.63,26.76,7.44,21.43,22.24h0ZM573.75,761.48h0c0,.19-.15.34-.34.34h-51.41c-.19,0-.34-.15-.34-.34v-52.53h0c0-.19.15-.34.34-.34h51.2c.19,0,.34.15.34.34v9.79c0,.19-.15.34-.34.34h-35.9c-.19,0-.34.15-.34.34v9.13h0c0,.19.15.34.34.34h34c.19,0,.34.15.34.34v9.89c0,.19-.15.34-.34.34h-33.99c-.19,0-.34.15-.34.34v11.09c0,.19.15.34.34.34h36.1c.19,0,.34.15.34.34v9.91h0ZM635.29,762.08s-.01.09-.03.14c-.08.22-.33.33-.54.24-.15-.06-.35-.08-.58-.06h-47.05c-.7.17-1.29.18-1.76.02-.31-.11-.52-.4-.52-.74v-52.01c0-.31.25-.56.56-.56h14.93c.3,0,.55.25.55.56v41.59c0,.33.27.6.61.6h33.47c.33.01.58.28.57.61l-.21,9.61h0ZM899.3,458.21c-12.5,14.16-30.86,19.66-49.7,18.3-28.95-2.08-48.58-25.17-51.07-53.19-2.49-28.01,12.77-54.2,40.9-61.35,18.3-4.65,37.35-2.49,52.14,9.26,12.72,10.09,19.99,25.98,21.4,41.93,1.42,15.95-2.93,32.87-13.67,45.05h0ZM1149.78,458.2c-12.49,14.16-30.85,19.65-49.67,18.3-28.94-2.08-48.57-25.16-51.05-53.16-2.49-28,12.76-54.18,40.87-61.33,18.29-4.65,37.33-2.48,52.12,9.26,12.71,10.08,19.98,25.96,21.4,41.9,1.41,15.95-2.94,32.86-13.67,45.03h0Z"/>
          <rect class="st1" x="318.79" y="717.76" width="38.7" height="33.16" rx="5.73" ry="5.73" transform="translate(-1.28 .59) rotate(-.1)"/>
        </g>
      </g>
    </g>
  </g>
</svg>