<?xml version="1.0" encoding="UTF-8"?>
<svg id="Ebene_1" data-name="Ebene 1" xmlns="http://www.w3.org/2000/svg" viewBox="0 0 375 225">
  <defs>
    <style>
      .cls-1 {
        fill: #fff;
        font-family: Helvetica-Bold, Helvetica;
        font-size: 13.47px;
        font-weight: 700;
      }

      .cls-2 {
        fill: #fffefe;
      }

      .cls-3 {
        letter-spacing: -.07em;
      }

      .cls-4 {
        letter-spacing: -.11em;
      }

      .cls-5 {
        letter-spacing: -.02em;
      }
    </style>
  </defs>
  <path class="cls-2" d="M81.18,82.12c-.13.09-.3.05-.39-.08s-.05-.3.08-.39l28.39-24.16c.15-.12.37-.1.49.05.06.07.08.16.08.25l-1.11,9.95c-.04.34.19.65.53.7.18.02.35-.03.49-.15l7.92-6.75c.14-.11.34-.1.46.04l3.87,4.55c.17.2.47.23.67.06,0,0,0,0,0,0l9.92-8.44c.21-.17.51-.15.68.05l3.82,4.5c.57.67.84,1.54.74,2.41l-5.29,47.04c-.03.21-.22.36-.42.33-.06,0-.12-.03-.18-.07l-6.2-4.75c-.3-.23-.44-.62-.36-.99,1.17-5.46,1.89-11.04,2.17-16.75.33-6.84,1.72-12.83,2.55-19.95.13-1.07.14-1.95.05-2.64-.08-.57-.61-.98-1.19-.89-.17.02-.34.09-.48.19-1.89,1.4-5.34,3.5-5.78,5.95-.49,2.71-.79,4.9-.89,6.57-.39,6.87-1.15,13.62-2.27,20.26-.99,5.84-1.07,12.15-1.72,17.6-.04.36-.36.62-.72.58-.12-.01-.24-.06-.33-.14l-5.6-4.28c-.29-.22-.46-.58-.43-.95.73-11.03,2.16-22.72,4.3-35.05.27-1.55.41-3.18.44-4.88.02-.87-.67-1.6-1.55-1.61-.39,0-.76.12-1.06.37l-4.32,3.68c-.23.2-.38.47-.43.77-1.25,7.66-1.99,10.39-2.48,17.57-.34,4.89-1.16,11.23-2.47,19.04-.57,3.41-.88,6.94-.93,10.59,0,.28-.23.51-.51.51-.11,0-.22-.04-.31-.11l-5.76-4.41c-.4-.3-.59-.8-.5-1.3.61-3.2,1.12-7.84,1.53-13.92.19-2.85.82-7.52,1.87-14.02.65-3.99,1.1-9.12,1.36-15.39.01-.34-.25-.63-.59-.65-.11,0-.21.02-.31.07l-17.83,9.04Z"/>
  <path class="cls-2" d="M162.26,59.42c-.25.54-.53,3.33-.84,8.37-.15,2.37-.47,5.03-.98,7.98-1.5,8.79-2.25,15.73-2.25,20.8,0,.55.09.99.26,1.32.33.64,1.12.89,1.77.56.22-.11.4-.29.53-.5,1.87-3.18,2.95-6.66,3.22-10.45.33-4.48.64-8.7.95-12.66.03-.42.35-.76.77-.82l6.42-.88c.28-.04.54.16.58.44,0,.06,0,.12,0,.18-1.45,6.83-2.25,13.65-2.41,20.48-.02.89.43,1.8,1.34,2.71.21.21.54.21.75,0,.02-.02.04-.04.05-.06.85-1.15,1.4-2.27,1.63-3.37,1.45-6.73,2.32-13.54,2.62-20.42.03-.55.42-1.02.95-1.16l5.73-1.46c.26-.07.52.09.59.35.01.05.02.11.01.17l-2.13,18.88c-.11,1.04.25,2.08.99,2.82l.65.65c.47.47,1.23.46,1.7,0,.18-.18.29-.41.33-.66l3.38-22.66c.02-.17.15-.32.32-.36l5.46-1.4c.11-.02.21.04.24.15,0,.03,0,.05,0,.08-1.5,7.43-2.42,14.35-2.76,20.77-.02.37-.16.72-.4.99-.76.88-2.16,1.23-2.8,2.22-1.29,1.98-2.63,2.77-4.16,5.08-.37.56-1.07,1.19-2.08,1.88-.31.21-.72.22-1.03.02-1.73-1.13-2.99-2.32-3.76-3.57-.24-.38-.73-.5-1.11-.26-.08.05-.16.12-.22.19l-6.15,8.03c-.21.27-.61.33-.88.12-.02-.02-.04-.04-.06-.06l-5.23-5.23c-.25-.24-.64-.25-.88,0-.02.02-.04.04-.06.06l-6.03,7.88c-.21.27-.59.31-.86.11-.02-.01-.04-.03-.05-.05l-4.82-4.82c-.31-.31-.81-.31-1.11,0-.02.02-.05.05-.07.08l-6.16,8.05c-.12.15-.34.18-.49.06-.02-.02-.04-.04-.06-.06-1.03-1.27-2.31-2.35-3.85-3.22-1.07-.61-1.67-1.79-1.54-3.02l2.67-23.69c.03-.2.17-.37.36-.42l6.92-1.77c.14-.03.28.05.31.19,0,.03,0,.06,0,.09-.53,4.37-1.38,9.74-2.55,16.11-.38,2.08-.52,4.09-.43,6.02.03.73.65,1.29,1.38,1.26.53-.02,1-.37,1.18-.87.35-.93,1.14-2.02,2.39-3.28.28-.28.47-.64.55-1.03.38-1.81,1-5.92,1.16-8.47.43-7.26,1.41-14.87,2.94-22.82.13-.69.14-1.85.03-3.48-.05-.7.42-1.32,1.11-1.48l5.52-1.24c.22-.05.43.09.48.31.02.09,0,.18-.03.26Z"/>
  <path class="cls-2" d="M142.96,67.78l6.07-.83c.18-.02.35.1.37.29,0,.02,0,.05,0,.07l-.68,6.09c-.02.15-.13.27-.28.29l-6.07.83c-.18.02-.35-.1-.37-.29,0-.02,0-.05,0-.07l.68-6.09c.02-.15.13-.27.28-.29Z"/>
  <path class="cls-2" d="M81.41,145.79c-.12.03-.24-.05-.28-.17-.03-.1.04-.21.14-.24,2.04-.45,4-1.1,5.89-1.93,1.2-.53,2.86-1.2,4.99-2,9.47-3.57,15.73-5.98,18.79-7.21,2.49-1.01,4.43-1.71,5.84-2.1,2.57-.72,4.75-2.13,7.8-3.29,12.17-4.63,19.28-7.36,21.32-8.19,1.67-.68,3.02-1.21,4.04-1.58,8.81-3.19,16.6-6.13,23.38-8.84.22-.08.46.02.54.24.02.06.03.12.03.18-.21,2.31-2.44,5.57-3.51,7.59-.11.21-.03.47.17.58.11.06.23.07.35.03l80.3-27.5c.18-.07.38.03.45.22.03.09.03.18,0,.26l-2.71,6.15c-.06.14,0,.31.15.37.07.03.14.03.21,0l57.42-21.81s.1.01.12.06c0,0,0,0,0,0v.13s0,.06-.03.07l-76.67,38.87c-.24.13-.54.04-.66-.2-.08-.15-.08-.32,0-.47l3.69-7.14c.14-.28.02-.62-.26-.76-.14-.07-.3-.08-.44-.03-33.32,12.35-51.35,19.01-54.1,20-6.71,2.43-21.17,8.5-29.14,11.11-1.21.39-2.42.7-3.63.92-.09.01-.18-.05-.19-.14,0-.03,0-.07.01-.1l5.04-9.75c.11-.22.02-.49-.2-.61-.08-.04-.17-.06-.26-.04-1.94.26-3.13.47-3.58.64-4.5,1.67-8.69,2.86-12.58,3.57-3.15.57-5.78,1.95-9.03,2.46-3.4.54-6.45,1.3-9.15,2.27-.78.28-1.59.48-2.41.61-3.56.57-6.37,1.22-8.43,1.93-3.85,1.34-8.03,1.67-11.93,2.99-3.96,1.35-7.22,1.68-11.47,2.84Z"/>
  <path class="cls-2" d="M299.16,63.21c-.15-.26-.49-.35-.75-.2l-8.81,5.09c-.21.12-.45.2-.69.24-1.05.15-2.02-.59-2.17-1.64l-.06-.49c-.22-1.62.56-3.22,1.97-4.03l7.27-4.19s.06-.04.09-.06c.24-.21.27-.57.06-.82l-7.09-8.33s0,0,0,0c-.25-.29-.69-.33-.99-.08l-5.46,4.64c-.58.5-.96,1.2-1.04,1.96l-1.17,10.35c-.15,1.36-.94,2.57-2.13,3.26l-6.83,3.94s-.06.03-.09.05c-.9.46-2,.09-2.46-.81l-.23-.45c-.83-1.63-.24-3.63,1.35-4.54l8.17-4.72c.06-.03.11-.07.16-.11.45-.38.5-1.06.12-1.51l-7.39-8.69c-.25-.29-.69-.33-.98-.08l-7.24,6.16c-.19.17-.3.4-.31.65-.14,4.83-.09,11.99-4.23,15.04-.03.03-.07.05-.11.07-.37.19-.83.05-1.02-.33l-4.4-8.69c-.5-1-.26-2.21.59-2.94l10.41-8.85c.1-.09.15-.22.15-.35-.01-.24-.22-.43-.46-.42-2.69.18-5.14,1.23-7.37,3.16-2.52,2.19-4.33,3.81-5.42,4.86-.11.11-.27.16-.42.14-.27-.04-.47-.29-.43-.56l1.78-15.83s0-.06,0-.08c-.03-.21-.22-.35-.43-.33l-5.33.73c-.33.05-.59.3-.63.63l-3.72,29.18c-.06.45-.26.86-.57,1.19l-3.19,3.31c-.19.19-.46.27-.72.22-.43-.08-.72-.51-.63-.94,1.31-6.23,2.09-12.34,2.36-18.32,0-.01,0-.02,0-.03-.01-.09-.1-.16-.2-.15l-6.03.83c-.26.03-.46.23-.49.49l-2.54,17c-.12.78-.51,1.49-1.11,2l-1.61,1.37c-.19.16-.43.24-.68.23-.53-.03-.94-.48-.91-1.01.31-6.55,1.08-12.79,2.29-18.74,0-.02,0-.05,0-.07-.02-.08-.1-.12-.17-.1l-6.88,1.76c-.2.06-.35.22-.37.43l-1.75,15.58c0,.07-.02.13-.04.2-.49,1.59-1.57,3.34-3.25,5.27-.05.05-.1.1-.15.14-.37.25-.87.16-1.13-.21-.19-.27-.29-.59-.3-.96-.18-5.5,1.03-12.08,2.16-18.67,0-.04,0-.09,0-.13-.02-.29-.27-.51-.57-.49-2.12.15-4.12.52-6,1.1-.21.07-.41.28-.59.64-.16.31-.34.55-.55.71-.25.19-.68.09-1.29-.28-.11-.07-.97-.59-2.57-1.58-.36-.23-.84-.14-1.1.2l-6.51,8.51c-.14.18-.22.38-.25.6l-1.68,14.97c-.04.36.1.72.38.95l5.37,4.53s.02.02.04.03c.45.35,1.1.26,1.44-.19l4.39-5.74c.54-.71,1.52-.91,2.3-.49,1.01.55,2.02,1.52,3.05,2.93.06.09.14.16.22.23.47.36,1.14.26,1.5-.21l4.51-5.89c.06-.08.13-.15.21-.22.6-.51,1.49-.44,1.99.16l2.46,2.9c.05.06.11.11.17.16.49.38,1.19.28,1.57-.21l4.15-5.41c.07-.1.16-.19.25-.27.73-.62,1.82-.53,2.45.2l2.33,2.74s.04.05.06.07c.42.42,1.11.42,1.53,0l5.53-5.53s.1-.09.15-.14c1.04-.89,2.61-.76,3.5.29l1.85,2.17c.12.14.28.22.46.24.38.04.73-.24.77-.62l1.26-11.16c.01-.13.09-.25.21-.31.19-.09.42-.01.51.18l5.13,10.12s.05.08.08.11c.18.18.45.18.62,0l6.49-6.48c.22-.22.57-.24.82-.05l4.23,3.23c.35.27.83.32,1.23.12,4.41-2.25,8.56-4.58,12.45-6.97,1.43-.89,2.9-.25,4.41,1.92.3.44.89.57,1.35.3l12.01-6.93c.7-.4,1.18-1.11,1.3-1.92l.09-.57c.02-.12,0-.25-.07-.36ZM287.75,54.94c.04-.34.35-.58.69-.54.08.01.17.04.24.08.63.38,1.26,1.22,1.87,2.51.15.31.03.68-.26.85l-2.46,1.41c-.17.09-.38.04-.48-.13-.04-.06-.05-.14-.04-.21l.44-3.97ZM269.15,63.08c.23-1.01.37-1.77.42-2.26.05-.49.05-1.26.02-2.3,0-.27.2-.49.47-.49.13,0,.25.04.34.13.9.86,1.69,1.74,2.38,2.64.05.05.06.17.04.34-.01.17-.05.27-.1.32-.85.75-1.79,1.46-2.84,2.13-.22.14-.52.08-.66-.14-.07-.11-.1-.24-.07-.37ZM207.62,73.84l-1.39,9.28c-.43,2.88-2.63,4.95-4.91,4.61h-.03c-.06,0-.11-.06-.1-.12,0,0,0,0,0-.01l2.92-19.52c0-.06.07-.1.13-.09,0,0,0,0,0,0h.03c2.28.34,3.78,2.96,3.35,5.85Z"/>
  <text class="cls-1" transform="translate(71.65 175.6) scale(1.42 1)"><tspan x="0" y="0">Nothing but HE</tspan><tspan class="cls-3" x="98.03" y="0">A</tspan><tspan x="106.77" y="0">V</tspan><tspan class="cls-5" x="115.75" y="0">Y</tspan><tspan x="124.5" y="0" xml:space="preserve"> DUT</tspan><tspan class="cls-4" x="155.94" y="0">Y</tspan><tspan x="163.43" y="0">.</tspan></text>
</svg>